<svg width="24" height="16" viewBox="0 0 24 16" fill="none" xmlns="http://www.w3.org/2000/svg">
<g clip-path="url(#clip0_678_3973)">
<path d="M23.4156 1.60442C22.4717 0.618215 19.1459 0 11.1459 0C8.42679 0 5.66275 0.206072 3.10095 0.839006C2.26949 1.0598 0.134658 1.63385 0.0672426 3.0322C0.0447707 3.32659 0.314434 3.57682 0.404321 3.87121L0.718928 4.68077C0.718928 4.65133 0.718928 4.63661 0.718928 4.60718C2.38185 9.65593 12.4043 9.22907 18.1796 7.80129C20.3369 7.27139 21.9998 6.5207 23.0335 5.13707C23.438 4.59246 23.8201 3.84177 23.9549 3.23827C23.9998 3.04692 23.9324 2.885 23.9774 2.69365C23.9324 2.28151 23.7077 1.91352 23.4156 1.60442Z" fill="#688EAD"/>
<path d="M2.49435 2.7821C2.8539 2.72322 3.23592 2.72322 3.573 2.66435C4.06738 2.57603 4.44941 2.34052 4.8539 2.14917C5.55053 1.84006 6.35952 1.63399 7.19098 1.57511C8.06738 1.50151 8.98873 1.57511 9.86514 1.48679C10.764 1.39848 11.6404 1.14825 12.5618 1.17769C13.4382 1.20712 14.2472 1.47207 15.1236 1.51623C16.1123 1.57511 17.1685 1.3396 18.1123 1.58983C18.5618 1.70758 18.9438 1.92838 19.4157 2.01669C19.7303 2.07557 20.0674 2.07557 20.382 2.09029C21.1011 2.14917 21.7528 2.38468 22.4045 2.60547C22.8988 2.7821 23.4157 2.97345 23.6404 3.312C23.9101 3.73886 23.573 4.23932 23.0786 4.57787C22.2022 5.19609 20.9213 5.47575 19.6629 5.68183C16.8988 6.12341 14.0224 6.21172 11.1685 6.25588C8.96626 6.30004 6.74154 6.31476 4.56177 6.03509C3.75278 5.93206 2.92132 5.77014 2.33705 5.40216C1.32581 4.72506 0.516823 3.13537 2.49435 2.7821Z" fill="#F4D09F"/>
<path d="M18.6517 2.32569C18.6067 2.42872 18.4494 2.50232 18.3146 2.5612C18.0899 2.66423 17.8202 2.75255 17.5506 2.82615C17.4382 2.85559 17.3258 2.88502 17.2359 2.9439C17.1461 3.00278 17.1236 3.10582 17.2135 3.14997C17.2584 3.17941 17.3034 3.17941 17.3483 3.19413C17.6854 3.23829 17.9775 3.0911 18.3146 3.06166C18.5618 3.03222 18.809 3.06166 19.0562 3.07638C19.3034 3.07638 19.573 3.06166 19.7528 2.95862C19.8202 2.92918 19.8652 2.88502 19.8652 2.82615C19.8652 2.76727 19.8202 2.72311 19.7303 2.70839C20.0449 2.79671 20.4045 2.82615 20.764 2.81143C20.8539 2.81143 20.9663 2.78199 21.0112 2.72311C21.0337 2.69367 21.0112 2.66423 21.0112 2.63479C20.9438 2.45816 20.6292 2.36985 20.3595 2.34041C20.0899 2.31097 19.7977 2.31097 19.573 2.20793C19.4607 2.16377 19.3933 2.09018 19.2809 2.04602C19.0786 1.9577 18.6517 1.89882 18.4494 2.00186C18.5843 2.07546 18.7191 2.19321 18.6517 2.32569Z" fill="#F2C194"/>
<path d="M14.4268 3.4296C14.3369 3.54736 14.1347 3.59152 13.9325 3.63567C13.6403 3.70927 13.3931 3.79759 13.1684 3.93006C13.1459 3.94478 13.1235 3.9595 13.101 3.98894C13.0336 4.07726 13.2133 4.15085 13.3707 4.13613C13.5055 4.12141 13.6403 4.06254 13.7751 4.06254C13.9549 4.06254 14.0898 4.13613 14.2471 4.16557C14.3594 4.18029 14.4942 4.18029 14.6066 4.16557C15.1684 4.12141 15.7077 4.07726 16.2695 4.0331C16.4718 4.01838 16.719 3.98894 16.8313 3.87118C16.8538 3.84175 16.8763 3.81231 16.8763 3.78287C16.8538 3.72399 16.7639 3.69455 16.6965 3.67983C16.4493 3.63567 16.1796 3.62095 15.9325 3.63567C15.8875 3.48848 16.3369 3.45904 16.3594 3.29713C15.9774 3.23825 15.5729 3.19409 15.1909 3.13521C14.7864 3.07634 14.3819 3.03218 13.9999 3.06162C14.2021 3.12049 14.5841 3.22353 14.4268 3.4296Z" fill="#F2C194"/>
<path d="M17.0561 4.47449C17.3932 4.35673 17.6628 4.15066 17.7302 3.90043C18.3594 3.90043 19.0561 3.90043 19.5505 3.63548C19.6628 3.57661 19.7527 3.50301 19.8651 3.45885C19.9999 3.39997 20.1797 3.38525 20.3594 3.37053C20.8314 3.32637 21.2808 3.28222 21.7527 3.22334C21.7977 3.22334 21.8651 3.20862 21.91 3.22334C21.9999 3.25278 22.0224 3.34109 21.9999 3.39997C21.91 3.62076 21.5729 3.76796 21.2359 3.82683C20.8988 3.88571 20.5392 3.90043 20.2021 3.97403C19.8875 4.04763 19.6179 4.19482 19.3482 4.31258C18.9662 4.47449 18.5617 4.60696 18.1123 4.71C17.1909 4.91607 16.2021 4.93079 15.2134 4.94551C14.6965 4.96023 14.2021 4.96023 13.7078 4.90135C14.2021 4.65112 14.8988 4.76888 15.4606 4.73944C15.9774 4.69528 16.5842 4.65112 17.0561 4.47449Z" fill="#F2C194"/>
<path d="M8.06742 3.03197C8.20225 3.04669 8.35955 3.04669 8.49438 3.01726C8.62922 2.98782 8.76405 2.91422 8.76405 2.8259C8.76405 2.75231 8.7191 2.69343 8.62922 2.63455C8.53933 2.59039 8.44944 2.56095 8.33708 2.53151C7.93259 2.4432 7.01124 2.35488 6.80899 2.69343C6.62921 3.06141 7.79775 3.01726 8.06742 3.03197Z" fill="#BF9777"/>
<path d="M7.2583 2.9291C7.80438 2.9291 8.24706 2.63913 8.24706 2.28144C8.24706 1.92375 7.80438 1.63379 7.2583 1.63379C6.71222 1.63379 6.26953 1.92375 6.26953 2.28144C6.26953 2.63913 6.71222 2.9291 7.2583 2.9291Z" fill="#600C4E"/>
<path d="M7.77508 1.6483L7.79755 1.66302C7.79755 1.66302 7.82002 1.66302 7.84249 1.66302C7.90991 1.6483 7.97733 1.63358 8.02227 1.61887C8.02227 1.6483 7.9998 1.67774 7.9998 1.70718C8.06721 1.70718 8.1571 1.70718 8.22452 1.70718C8.20204 1.73662 8.1571 1.76606 8.13463 1.7955C8.17957 1.7955 8.24699 1.7955 8.29193 1.7955C8.3144 1.7955 8.33688 1.7955 8.33688 1.81022C8.33688 1.81022 8.33688 1.82494 8.3144 1.82494C8.24699 1.8691 8.17957 1.91325 8.11216 1.94269C8.08968 1.95741 8.04474 1.97213 7.9998 1.98685C7.95485 1.98685 7.93238 1.97213 7.88744 1.97213C7.77508 1.94269 7.5953 1.8691 7.55036 1.7955C7.50542 1.7219 7.61778 1.63358 7.68519 1.57471C7.75261 1.61887 7.75261 1.63358 7.77508 1.6483Z" fill="#600C4E"/>
<path opacity="0.33" d="M6.94371 1.81007C6.83135 1.85423 6.74147 1.91311 6.71899 2.00142C6.71899 2.01614 6.71899 2.04558 6.71899 2.0603C6.71899 2.08974 6.76394 2.10446 6.78641 2.11918C6.80888 2.1339 6.83135 2.14862 6.85383 2.1339C6.89877 2.1339 6.92124 2.10446 6.94371 2.07502C7.0336 1.9867 7.1909 1.92783 7.34821 1.95726C7.39315 1.95726 7.43809 1.97198 7.46057 1.94255C7.46057 1.94255 7.46057 1.92783 7.46057 1.91311C7.48304 1.73647 7.12349 1.76591 6.94371 1.81007Z" fill="white"/>
<path d="M5.57311 4.34203C5.70794 4.35675 5.86524 4.35675 6.00007 4.32731C6.13491 4.29787 6.26974 4.22428 6.26974 4.13596C6.26974 4.06236 6.22479 4.00349 6.13491 3.94461C6.04502 3.90045 5.95513 3.87101 5.84277 3.84157C5.43828 3.75326 4.51693 3.66494 4.31468 4.00349C4.1349 4.37147 5.28097 4.32731 5.57311 4.34203Z" fill="#BF9777"/>
<path d="M5.71714 3.74297C5.84372 3.39501 5.5157 3.04572 4.98447 2.9628C4.45324 2.87989 3.91999 3.09476 3.7934 3.44272C3.66682 3.79068 3.99485 4.13997 4.52608 4.22288C5.0573 4.30579 5.59056 4.09093 5.71714 3.74297Z" fill="#600C4E"/>
<path d="M5.25848 2.95836L5.28095 2.97308C5.28095 2.97308 5.30342 2.97308 5.32589 2.97308C5.39331 2.95836 5.46072 2.94364 5.50567 2.92892C5.50567 2.95836 5.4832 2.9878 5.4832 3.01724C5.55061 3.01724 5.6405 3.01724 5.70792 3.01724C5.68544 3.04668 5.6405 3.07612 5.61803 3.10556C5.66297 3.10556 5.73039 3.10556 5.77533 3.10556C5.7978 3.10556 5.82027 3.10556 5.82027 3.12028C5.82027 3.12028 5.82027 3.135 5.7978 3.135C5.73039 3.17915 5.66297 3.22331 5.59556 3.25275C5.57308 3.26747 5.52814 3.28219 5.4832 3.29691C5.43825 3.29691 5.41578 3.28219 5.37084 3.28219C5.25848 3.25275 5.0787 3.17915 5.03376 3.10556C4.98881 3.03196 5.10117 2.94364 5.16859 2.88477C5.23601 2.92892 5.25848 2.94364 5.25848 2.95836Z" fill="#600C4E"/>
<path opacity="0.33" d="M4.44933 3.12013C4.33697 3.16429 4.24708 3.22317 4.22461 3.31148C4.22461 3.3262 4.22461 3.35564 4.22461 3.37036C4.22461 3.3998 4.26955 3.41452 4.29203 3.42924C4.3145 3.44396 4.33697 3.45868 4.35944 3.44396C4.40438 3.44396 4.42686 3.41452 4.44933 3.38508C4.53922 3.29676 4.69652 3.23788 4.85382 3.26732C4.89877 3.26732 4.94371 3.28204 4.96618 3.2526C4.96618 3.2526 4.96618 3.23788 4.96618 3.22317C4.98865 3.04653 4.60663 3.07597 4.44933 3.12013Z" fill="white"/>
<path d="M14.5392 4.63647C14.674 4.65119 14.8313 4.65119 14.9661 4.62175C15.101 4.59231 15.2358 4.51871 15.2358 4.4304C15.2358 4.3568 15.1909 4.29792 15.101 4.23904C15.0111 4.19488 14.9212 4.16545 14.8088 4.13601C14.4043 4.04769 13.483 3.95937 13.2807 4.29792C13.101 4.66591 14.247 4.62175 14.5392 4.63647Z" fill="#BF9777"/>
<path d="M14.0374 4.50219C14.5568 4.39173 14.8411 4.02641 14.6725 3.68621C14.5039 3.34601 13.9461 3.15976 13.4267 3.27022C12.9074 3.38067 12.623 3.746 12.7917 4.0862C12.9603 4.4264 13.518 4.61264 14.0374 4.50219Z" fill="#600C4E"/>
<path d="M14.2472 3.2528L14.2697 3.26752C14.2697 3.26752 14.2922 3.26752 14.3147 3.26752C14.3821 3.2528 14.4495 3.23808 14.4944 3.22336C14.4944 3.2528 14.472 3.28224 14.472 3.31167C14.5394 3.31167 14.6293 3.31167 14.6967 3.31167C14.6742 3.34111 14.6293 3.37055 14.6068 3.39999C14.6517 3.39999 14.7192 3.39999 14.7641 3.39999C14.7866 3.39999 14.809 3.39999 14.809 3.41471C14.809 3.41471 14.8091 3.42943 14.7866 3.42943C14.7192 3.47359 14.6517 3.51775 14.5843 3.54718C14.5619 3.5619 14.5169 3.57662 14.472 3.59134C14.427 3.59134 14.4046 3.57662 14.3596 3.57662C14.2472 3.54718 14.0675 3.47359 14.0225 3.39999C13.9776 3.32639 14.0899 3.23808 14.1574 3.1792C14.2023 3.20864 14.2248 3.23808 14.2472 3.2528Z" fill="#600C4E"/>
<path opacity="0.33" d="M13.4156 3.41504C13.3033 3.45919 13.2134 3.51807 13.1909 3.60639C13.1909 3.62111 13.1909 3.65055 13.1909 3.66527C13.1909 3.6947 13.2359 3.70942 13.2583 3.72414C13.2808 3.73886 13.3033 3.75358 13.3257 3.73886C13.3707 3.73886 13.3932 3.70942 13.4156 3.67999C13.5055 3.59167 13.6628 3.53279 13.8201 3.56223C13.8651 3.56223 13.91 3.57695 13.9325 3.54751C13.9325 3.54751 13.9325 3.53279 13.9325 3.51807C13.955 3.34144 13.5729 3.35616 13.4156 3.41504Z" fill="white"/>
<path d="M16.7864 3.28246C16.9213 3.29718 17.0786 3.29718 17.2134 3.26774C17.3482 3.2383 17.4831 3.16471 17.4831 3.07639C17.4831 3.00279 17.4381 2.94392 17.3482 2.88504C17.2584 2.84088 17.1685 2.81144 17.0561 2.782C16.6516 2.69369 15.7303 2.60537 15.528 2.94392C15.3258 3.3119 16.4943 3.26774 16.7864 3.28246Z" fill="#BF9777"/>
<path d="M15.9775 3.17959C16.5236 3.17959 16.9663 2.88962 16.9663 2.53193C16.9663 2.17424 16.5236 1.88428 15.9775 1.88428C15.4315 1.88428 14.9888 2.17424 14.9888 2.53193C14.9888 2.88962 15.4315 3.17959 15.9775 3.17959Z" fill="#600C4E"/>
<path d="M16.4719 1.89879L16.4943 1.91351C16.4943 1.91351 16.5168 1.91351 16.5393 1.91351C16.6067 1.89879 16.6741 1.88407 16.719 1.86935C16.719 1.89879 16.6966 1.92823 16.6966 1.95767C16.764 1.95767 16.8539 1.95767 16.9213 1.95767C16.8988 1.98711 16.8539 2.01655 16.8314 2.04599C16.8764 2.04599 16.9438 2.04599 16.9887 2.04599C17.0112 2.04599 17.0337 2.04599 17.0337 2.06071C17.0337 2.06071 17.0337 2.07543 17.0112 2.07543C16.9438 2.11958 16.8764 2.16374 16.8089 2.19318C16.7865 2.2079 16.7415 2.22262 16.6966 2.23734C16.6516 2.23734 16.6292 2.22262 16.5842 2.22262C16.4719 2.19318 16.2921 2.11958 16.2471 2.04599C16.2022 1.97239 16.3146 1.88407 16.382 1.8252C16.4494 1.86935 16.4719 1.88407 16.4719 1.89879Z" fill="#600C4E"/>
<path opacity="0.33" d="M15.6405 2.06054C15.5281 2.1047 15.4382 2.16358 15.4158 2.2519C15.4158 2.26662 15.4158 2.29606 15.4158 2.31077C15.4158 2.34021 15.4607 2.35493 15.4832 2.36965C15.5057 2.38437 15.5281 2.39909 15.5506 2.38437C15.5955 2.38437 15.618 2.35493 15.6405 2.32549C15.7304 2.23718 15.8877 2.1783 16.045 2.20774C16.0899 2.20774 16.1349 2.22246 16.1573 2.19302C16.1573 2.19302 16.1573 2.1783 16.1573 2.16358C16.2023 1.98695 15.8203 2.00167 15.6405 2.06054Z" fill="white"/>
<path d="M12.5392 2.0017C12.674 2.01642 12.8313 2.01642 12.9661 1.98698C13.101 1.95754 13.2358 1.88395 13.2358 1.79563C13.2358 1.72203 13.1909 1.66315 13.101 1.60428C13.0111 1.56012 12.9212 1.53068 12.8088 1.50124C12.4043 1.41292 11.483 1.32461 11.2807 1.66315C11.101 2.03114 12.247 1.98698 12.5392 2.0017Z" fill="#BF9777"/>
<path d="M12.6914 1.40309C12.8158 1.05481 12.4855 0.706445 11.9538 0.624999C11.4221 0.543553 10.8903 0.759866 10.7659 1.10815C10.6416 1.45643 10.9718 1.80479 11.5035 1.88624C12.0352 1.96769 12.5671 1.75137 12.6914 1.40309Z" fill="#600C4E"/>
<path d="M12.2472 0.618031L12.2697 0.63275C12.2697 0.63275 12.2922 0.63275 12.3147 0.63275C12.3821 0.618031 12.4495 0.603311 12.4944 0.588592C12.4944 0.618031 12.472 0.647469 12.472 0.676908C12.5394 0.676908 12.6293 0.676908 12.6967 0.676908C12.6742 0.706347 12.6293 0.735786 12.6068 0.765225C12.6517 0.765225 12.7192 0.765225 12.7641 0.765225C12.7866 0.765225 12.809 0.765225 12.809 0.779944C12.809 0.779944 12.809 0.794663 12.7866 0.794663C12.7192 0.838822 12.6517 0.88298 12.5843 0.912419C12.5619 0.927138 12.5169 0.941858 12.472 0.956577C12.427 0.956577 12.4046 0.941858 12.3596 0.941858C12.2472 0.912419 12.0675 0.838822 12.0225 0.765225C11.9776 0.691628 12.0899 0.603311 12.1574 0.544434C12.2023 0.588592 12.2248 0.603311 12.2472 0.618031Z" fill="#600C4E"/>
<path opacity="0.33" d="M11.4156 0.779797C11.3033 0.823955 11.2134 0.882833 11.1909 0.97115C11.1909 0.985869 11.1909 1.01531 11.1909 1.03003C11.1909 1.05947 11.2359 1.07419 11.2583 1.0889C11.2808 1.10362 11.3033 1.11834 11.3258 1.10362C11.3707 1.10362 11.3932 1.07419 11.4156 1.04475C11.5055 0.95643 11.6628 0.897553 11.8201 0.926991C11.8651 0.926991 11.91 0.941711 11.9325 0.912272C11.9325 0.912272 11.9325 0.897553 11.9325 0.882833C11.955 0.7062 11.5729 0.735639 11.4156 0.779797Z" fill="white"/>
<path d="M20.9662 4.9602C21.101 4.97492 21.2583 4.97492 21.3931 4.94548C21.528 4.91604 21.6628 4.84244 21.6628 4.75413C21.6628 4.68053 21.6179 4.62165 21.528 4.56277C21.4381 4.51862 21.3482 4.48918 21.2358 4.45974C20.8313 4.37142 19.91 4.2831 19.7077 4.62165C19.528 4.98964 20.674 4.94548 20.9662 4.9602Z" fill="#BF9777"/>
<path d="M21.1316 4.34043C21.2465 3.99075 20.9068 3.6463 20.373 3.57108C19.8391 3.49586 19.3133 3.71835 19.1984 4.06803C19.0836 4.4177 19.4232 4.76215 19.9571 4.83737C20.4909 4.9126 21.0168 4.69011 21.1316 4.34043Z" fill="#600C4E"/>
<path d="M20.6515 3.57653L20.674 3.59125C20.674 3.59125 20.6965 3.59125 20.719 3.59125C20.7864 3.57653 20.8538 3.56181 20.8987 3.54709C20.8987 3.57653 20.8763 3.60597 20.8763 3.6354C20.9437 3.6354 21.0336 3.6354 21.101 3.6354C21.0785 3.66484 21.0336 3.69428 21.0111 3.72372C21.056 3.72372 21.1235 3.72372 21.1684 3.72372C21.1909 3.72372 21.2133 3.72372 21.2133 3.73844C21.2133 3.73844 21.2133 3.75316 21.1909 3.75316C21.1235 3.79732 21.056 3.84148 20.9886 3.87092C20.9661 3.88563 20.9212 3.90035 20.8763 3.91507C20.8313 3.91507 20.8088 3.90035 20.7639 3.90035C20.6515 3.87092 20.4718 3.79732 20.4268 3.72372C20.3819 3.65012 20.4942 3.56181 20.5617 3.50293C20.6291 3.53237 20.6515 3.56181 20.6515 3.57653Z" fill="#600C4E"/>
<path opacity="0.33" d="M19.8426 3.73877C19.7303 3.78293 19.6404 3.8418 19.6179 3.93012C19.6179 3.94484 19.6179 3.97428 19.6179 3.989C19.6179 4.01844 19.6629 4.03316 19.6853 4.04788C19.7078 4.0626 19.7303 4.07732 19.7528 4.0626C19.7977 4.0626 19.8202 4.03316 19.8426 4.00372C19.9325 3.9154 20.0898 3.85652 20.2471 3.88596C20.2921 3.88596 20.337 3.90068 20.3595 3.87124C20.3595 3.87124 20.3595 3.85652 20.3595 3.8418C20.382 3.66517 19.9999 3.67989 19.8426 3.73877Z" fill="white"/>
<path d="M23.9773 2.66406C23.7301 3.13508 23.1908 3.41475 22.7189 3.70914C22.0896 4.09185 21.438 4.37151 20.6514 4.63646C18.6514 5.29884 16.4267 5.21052 14.247 5.343C11.2807 5.50491 7.43796 5.50491 4.67392 4.90141C2.7638 4.48927 1.59527 3.87105 0.0671753 3.03205C-0.000240472 4.18016 0.314366 5.21052 0.494142 5.91705C0.853692 7.43315 1.79751 9.17004 3.48291 10.2446C3.86493 10.4948 4.26942 10.7156 4.67392 10.8922C4.96605 13.6889 12.5391 13.4976 15.1458 13.4387C16.9885 13.3945 18.6964 12.791 19.2582 12.217C19.6402 11.7312 19.6852 11.2896 19.6402 10.8775C20.8762 10.3034 21.8874 9.55275 22.5616 8.65486C23.6177 7.27124 23.5503 5.81402 23.8425 4.32736C23.9773 3.81218 24.0222 3.19396 23.9773 2.66406Z" fill="#8FBBEF"/>
<path d="M22.6066 8.65486C23.6628 7.27124 23.5954 5.81402 23.8875 4.32736C23.9774 3.81218 24.0223 3.20868 23.9774 2.66406C23.4381 3.2234 23.1459 3.45891 22.674 3.73858C21.9999 4.12128 21.4605 4.35679 20.674 4.62174C20.3594 4.72478 20.0673 4.79838 19.7302 4.87197C19.5729 5.28412 19.4605 5.7257 19.3032 6.10841C18.6066 7.94833 17.0336 9.84714 14.292 10.6273C13.8875 10.745 11.6179 10.8481 11.8201 11.216C11.91 11.378 12.6291 11.4368 12.8089 11.6576C12.9886 11.8931 12.8987 12.3494 12.8313 12.6144C12.7639 12.8646 12.5167 13.1884 12.6516 13.4681C13.6628 13.4828 14.5617 13.4534 15.1909 13.4387C17.0336 13.3945 18.7414 12.791 19.3032 12.217C19.6853 11.7312 19.7302 11.2896 19.6853 10.8775C20.8987 10.3034 21.91 9.55275 22.6066 8.65486Z" fill="#80ABD6"/>
<path d="M0.516676 4.62161C0.718923 4.60689 0.943642 4.60689 1.12342 4.66577C1.25825 4.70993 1.37061 4.79825 1.4605 4.88656C1.70769 5.13679 1.88746 5.40174 2.26948 5.5931C3.01106 5.94636 3.97735 5.54894 4.74139 5.84333C4.94364 5.91692 5.14589 6.03468 5.32566 6.13771C5.50544 6.24075 5.68521 6.34379 5.86499 6.4321C6.20207 6.60873 6.58409 6.77065 7.01106 6.85896C7.50544 6.962 8.02229 6.93256 8.53915 6.84425C8.98859 6.77065 9.41555 6.65289 9.88746 6.62345C10.1122 6.60873 10.3369 6.62345 10.5616 6.68233C10.8313 6.74121 11.0785 6.85896 11.3481 6.94728C11.865 7.10919 12.4043 7.22695 12.9886 7.24167C13.5729 7.25639 14.1347 7.13863 14.6515 6.94728C15.0785 6.78537 15.5054 6.63817 15.9773 6.5793C16.3594 6.53514 16.7414 6.59402 17.1009 6.65289C17.5504 6.72649 18.0223 6.85896 18.4942 6.82953C19.2358 6.77065 19.5729 6.34379 20.0448 6.01996C20.292 5.84333 20.6066 5.71085 20.9661 5.66669C21.2807 5.63725 21.5729 5.68141 21.8875 5.68141C22.2021 5.68141 22.4942 5.62253 22.6965 5.46062C22.8538 5.34286 22.9661 5.21039 23.056 5.0632C23.1234 4.94544 23.1459 4.82769 23.2133 4.69521C23.2582 4.59218 23.3481 4.54802 23.5279 4.56274C23.5279 4.50386 23.5279 4.43026 23.5279 4.37138C23.4156 4.3861 23.3257 4.41554 23.2358 4.4597C23.1009 4.54802 23.3032 4.68049 23.438 4.59218C23.4605 4.57746 23.483 4.56274 23.5279 4.56274C23.7077 4.54802 23.7302 4.37138 23.5279 4.37138C23.3257 4.35666 23.1459 4.40082 23.0111 4.51858C22.8987 4.62161 22.8762 4.73937 22.8313 4.85712C22.7414 5.07792 22.5391 5.35758 22.2245 5.4459C21.9773 5.50478 21.6852 5.46062 21.4156 5.4459C21.056 5.43118 20.6964 5.46062 20.3818 5.57838C20.0448 5.69613 19.7976 5.87276 19.5504 6.06412C19.3481 6.22603 19.1459 6.40266 18.8762 6.5057C18.5616 6.63817 18.1796 6.63817 17.82 6.56458C17.3706 6.49098 16.9212 6.38794 16.4717 6.34379C16.0672 6.31435 15.6852 6.3585 15.3257 6.46154C14.7863 6.60873 14.3144 6.84425 13.7526 6.94728C13.2133 7.05032 12.6515 7.02088 12.1122 6.91784C11.8425 6.85896 11.5729 6.78537 11.3032 6.69705C11.056 6.60873 10.8088 6.5057 10.5167 6.46154C10.0672 6.37322 9.64027 6.4321 9.19083 6.5057C8.69645 6.59402 8.1796 6.71177 7.66274 6.71177C6.71892 6.71177 6.04477 6.25547 5.34814 5.87276C5.16836 5.76973 4.96611 5.66669 4.74139 5.5931C4.53915 5.53422 4.31443 5.50478 4.08971 5.49006C3.68522 5.47534 3.25825 5.54894 2.85375 5.50478C2.38184 5.4459 2.11218 5.21039 1.88746 4.94544C1.70769 4.73937 1.50544 4.51858 1.14589 4.43026C0.943642 4.41554 0.718923 4.41554 0.516676 4.43026C0.314428 4.43026 0.314428 4.63633 0.516676 4.62161Z" fill="#E5E5B7"/>
<path d="M0.876247 5.60812C1.07849 5.56396 1.28074 5.56396 1.46052 5.63756C1.61782 5.71115 1.73018 5.82891 1.82007 5.93195C2.02231 6.15274 2.17962 6.43241 2.47175 6.59432C2.65153 6.68264 2.85378 6.72679 3.05602 6.75623C3.30321 6.77095 3.5504 6.74151 3.77512 6.69736C4.02231 6.6532 4.24703 6.60904 4.49422 6.66792C4.69647 6.71207 4.87625 6.80039 5.01108 6.91815C5.30321 7.13894 5.48299 7.40389 5.86501 7.5658C6.08973 7.65412 6.33692 7.71299 6.58411 7.71299C6.80883 7.71299 7.01108 7.66884 7.19085 7.60996C7.61782 7.47748 8.04479 7.33029 8.53917 7.34501C8.92119 7.35973 9.25827 7.50692 9.57288 7.62468C9.9549 7.77187 10.3819 7.93379 10.8313 8.00738C11.3032 8.08098 11.7751 8.0221 12.2246 7.91907C12.6515 7.81603 13.101 7.68356 13.5504 7.68356C13.9998 7.68356 14.4268 7.78659 14.8088 7.91907C15.1459 8.0221 15.483 8.15458 15.865 8.15458C16.3594 8.1693 16.8313 7.99266 17.2583 7.83075C17.483 7.74243 17.7077 7.6394 17.9324 7.58052C18.1796 7.52164 18.4493 7.50692 18.7414 7.52164C19.0111 7.53636 19.2583 7.58052 19.5279 7.5658C19.7976 7.55108 20.0448 7.47748 20.2695 7.35973C20.6066 7.16838 20.7189 6.87399 20.9886 6.63848C21.1234 6.53544 21.3032 6.43241 21.483 6.40297C21.6628 6.37353 21.865 6.35881 22.0448 6.34409C22.3594 6.29993 22.6515 6.18218 22.8987 6.06442C23.056 6.00554 23.1909 5.93195 23.3257 5.84363C23.4156 5.78475 23.5279 5.72587 23.5729 5.65228C23.6403 5.57868 23.6178 5.49036 23.483 5.4462C23.3257 5.38733 23.1684 5.54924 23.3257 5.60812C23.3482 5.62284 23.3032 5.5934 23.3032 5.5934C23.2583 5.54924 23.3257 5.60812 23.3032 5.56396V5.54924C23.3032 5.54924 23.2807 5.57868 23.3032 5.54924C23.2807 5.57868 23.2583 5.5934 23.2133 5.62284C23.101 5.69643 22.9886 5.75531 22.8538 5.82891C22.6291 5.93195 22.3369 6.06442 22.0897 6.1233C21.91 6.15274 21.7077 6.16746 21.5055 6.18218C21.3257 6.21161 21.1459 6.25577 20.9886 6.32937C20.6066 6.52072 20.4942 6.80039 20.2246 7.05062C20.1796 7.21253 19.9998 7.31557 19.7751 7.35973C19.5279 7.40389 19.2583 7.38917 18.9886 7.35973C18.7189 7.33029 18.4493 7.31557 18.1796 7.35973C17.9324 7.38917 17.6852 7.46276 17.483 7.55108C17.056 7.71299 16.6291 7.93379 16.1347 7.97794C15.7751 8.00738 15.438 7.90435 15.1234 7.80131C14.7414 7.66884 14.3369 7.55108 13.91 7.52164C13.438 7.47748 13.0111 7.5658 12.5616 7.66884C12.1347 7.77187 11.7077 7.88963 11.2583 7.87491C10.8088 7.86019 10.3594 7.71299 9.97737 7.5658C9.64029 7.43333 9.30321 7.28613 8.94366 7.21253C8.5167 7.13894 8.08973 7.16838 7.68524 7.28613C7.28074 7.38917 6.87625 7.59524 6.40434 7.52164C6.17962 7.47748 5.97737 7.40389 5.82007 7.28613C5.66276 7.1831 5.5504 7.06534 5.43805 6.94759C5.16838 6.71207 4.8313 6.506 4.35939 6.47656C3.86501 6.44712 3.43805 6.66792 2.94366 6.5796C2.56164 6.506 2.40434 6.24105 2.24703 6.03498C2.06726 5.81419 1.84254 5.54924 1.46052 5.4462C1.25827 5.40205 1.03355 5.40205 0.831303 5.4462C0.606584 5.46092 0.696472 5.65228 0.876247 5.60812Z" fill="#E5E5B7"/>
<path opacity="0.1" d="M6.56164 5.94688C6.11221 5.74081 5.61782 5.5789 5.10097 5.4317C4.56164 5.26979 3.0785 4.62213 2.60659 5.049C0.584116 5.44642 2.3594 7.77209 3.19086 8.55222C3.70771 9.03796 5.6403 10.0683 6.47176 9.25875C6.76389 8.96436 6.65153 8.49334 6.69648 8.16951C6.74142 7.77209 6.74142 7.38938 6.83131 6.99196C6.94367 6.52094 7.21333 6.25599 6.56164 5.94688Z" fill="white"/>
<path d="M9.30319 1.97232C9.19083 2.0312 9.14589 2.11951 9.2133 2.19311C9.25825 2.23727 9.32566 2.26671 9.39308 2.28143C9.6178 2.35502 9.88746 2.42862 9.97735 2.57581C10.0897 2.73773 9.93241 2.92908 9.75263 3.07627C9.55038 3.22347 9.30319 3.34122 9.03353 3.41482C8.69645 3.50314 8.29196 3.5473 7.99982 3.70921C7.93241 3.75337 7.86499 3.79753 7.86499 3.8564C7.86499 3.93 7.99982 3.98888 8.11218 4.01832C8.76387 4.18023 9.52791 4.09191 10.0672 3.81225C10.2021 3.73865 10.3369 3.66505 10.4942 3.60617C10.6965 3.53258 10.9436 3.53258 11.1684 3.51786C11.6178 3.4737 12.0448 3.38538 12.4493 3.25291C12.6066 3.20875 12.7414 3.13515 12.8538 3.06155C12.8762 3.03212 12.9212 3.00268 12.9212 2.97324C12.9436 2.91436 12.8538 2.85548 12.7639 2.82604C12.674 2.79661 12.5616 2.79661 12.4717 2.79661C12.2021 2.79661 11.9549 2.78189 11.7077 2.72301C11.4605 2.66413 11.2582 2.54638 11.1459 2.39918C11.1009 2.32558 11.0785 2.25199 11.0111 2.19311C10.9212 2.09007 10.7863 2.0312 10.6515 1.97232C10.2695 1.85456 9.64027 1.79569 9.30319 1.97232Z" fill="#F2DCA5"/>
<path d="M9.84251 9.06738C9.07846 9.06738 8.31442 9.11154 7.55037 9.12626C6.02228 9.17042 4.49419 9.17042 2.9661 9.17042C2.40431 9.17042 1.86498 9.1557 1.32566 9.1557C1.05599 9.1557 0.78633 9.1557 0.516667 9.1557C0.381835 9.1557 -0.0676029 9.18514 0.0222847 9.19986V9.24402C0.0222847 9.52368 0.0672286 9.86223 0.359363 10.0683C0.606554 11.555 1.3706 15.1465 1.88745 15.4262C3.25824 16.1621 7.75262 16.2063 8.94363 15.3967C9.39307 15.0876 10.0897 11.7758 10.3369 10.2008C10.6066 10.083 10.4268 9.80335 10.4717 9.55312C10.5841 9.06738 10.5167 9.0821 9.84251 9.06738Z" fill="#EFE0CB"/>
<path d="M5.14596 7.93392C2.38192 7.96336 -0.0675209 8.47854 -0.000105172 9.15563C0.0673106 9.83272 1.66282 10.5687 5.19091 10.5687C9.14596 10.5687 10.4044 10.1565 10.5842 9.22923C10.7864 8.40494 8.20214 7.9192 5.14596 7.93392Z" fill="#EF6A60"/>
<path d="M8.94373 15.3968C9.34822 15.1171 9.97744 12.3499 10.2696 10.6719C9.93249 10.7455 9.59542 10.8338 9.39317 10.8632C8.67407 10.9663 7.93249 11.0251 7.21339 11.0987C6.51676 11.1723 5.79766 11.1871 5.05609 11.1871C4.38193 11.1871 3.41564 11.1576 2.85384 10.9368L2.87631 10.9957C3.19092 11.1282 3.79766 11.2165 4.20216 11.2754C5.66283 11.4667 7.14598 11.5403 8.58418 11.7317C8.62912 12.2321 8.56171 12.762 8.49429 13.2625C8.42688 13.8071 8.22463 14.3959 8.02238 14.9111C7.79766 15.4998 6.62912 15.6176 5.86508 15.6176C4.83137 15.6176 3.73025 15.6323 2.74148 15.441C2.44935 15.3821 2.02238 15.1907 1.6853 15.2055C1.75272 15.3232 1.82013 15.4115 1.88755 15.441C3.25834 16.1769 7.77519 16.2211 8.94373 15.3968Z" fill="#E8D2BF"/>
<path d="M10.9437 10.2891C10.674 9.99476 10.9662 9.37654 10.3145 9.25879C9.9774 9.19991 9.59538 9.24407 9.34818 9.40598C9.21335 9.4943 8.83133 10.1125 9.23583 10.0536L9.30324 10.1272C9.68526 10.1125 9.93245 10.3186 10.0223 10.5247C10.1122 10.7454 10.3369 10.9368 10.6516 11.0693C10.9662 11.2017 11.2808 11.187 11.3482 10.9221C11.4156 10.6424 11.1235 10.4952 10.9437 10.2891Z" fill="#EF6A60"/>
<path opacity="0.3" d="M1.91005 10.966C1.68533 10.9219 1.43814 10.8777 1.25837 10.9366C1.21342 10.9366 1.19095 10.9513 1.16848 10.9955C1.14601 11.0396 1.12354 11.0838 1.12354 11.1574C1.12354 11.231 1.14601 11.3193 1.16848 11.3929C1.19095 11.5254 1.21342 11.6431 1.23589 11.6726C1.32578 12.07 1.48309 12.4674 1.57297 12.8501C1.66286 13.2328 1.68533 13.6008 1.75275 13.9835C1.79769 14.2337 1.93252 14.9108 2.49432 14.8814C3.16848 14.8372 2.76398 13.8952 2.76398 13.6155C2.76398 13.0856 3.01117 12.644 3.19095 12.1436C3.34825 11.5695 2.69657 11.1427 1.91005 10.966Z" fill="white"/>
<path d="M8.92128 12.5561C9.75274 13.3951 9.52802 14.4696 8.40443 14.9406C7.28083 15.4116 5.75274 15.0142 4.67409 14.293C3.50555 13.5128 3.64038 12.247 4.76398 11.7759C5.8651 11.3049 8.06735 11.7023 8.92128 12.5561Z" fill="white"/>
<path d="M8.92114 12.556C8.83125 12.4529 8.71889 12.3646 8.60653 12.291C8.58406 12.6148 8.56159 12.9387 8.51664 13.2478C8.44923 13.7924 8.24698 14.3812 8.04473 14.8964C8.02226 14.9699 7.97732 15.0288 7.93237 15.0877C8.08968 15.0583 8.24698 14.9994 8.40428 14.9405C9.50541 14.4695 9.7526 13.395 8.92114 12.556Z" fill="#DDDDDD"/>
<path d="M6.02237 12.0258C6.04484 11.9963 6.08978 11.9963 6.13473 11.9963C6.17967 12.011 6.22462 12.0405 6.20214 12.0699C6.20214 12.0846 6.17967 12.0994 6.1572 12.1141L5.95495 12.2613L5.93248 12.3496C5.91001 12.3937 5.86507 12.4232 5.79765 12.4085C5.73023 12.3937 5.70776 12.3643 5.73023 12.3201L5.75271 12.2318L5.66282 12.0405C5.66282 12.0258 5.64035 12.011 5.66282 11.9963C5.66282 11.9669 5.73024 11.9374 5.77518 11.9522C5.82012 11.9522 5.84259 11.9816 5.86507 12.011L5.91001 12.1288L6.02237 12.0258Z" fill="#EF6A60"/>
<path d="M6.67402 12.0993C6.83132 12.1435 6.94368 12.2465 6.85379 12.3937C6.7639 12.5409 6.58413 12.5556 6.42682 12.5262C6.26952 12.482 6.15716 12.379 6.24705 12.2318C6.31447 12.0993 6.49424 12.0699 6.67402 12.0993ZM6.6066 12.2023C6.51671 12.1876 6.47177 12.2171 6.42682 12.2759C6.38188 12.3348 6.40435 12.3937 6.47177 12.4084C6.56166 12.4231 6.6066 12.3937 6.65154 12.3348C6.69649 12.2759 6.69649 12.2318 6.6066 12.2023Z" fill="#EF6A60"/>
<path d="M7.23585 12.6293C7.21337 12.6146 7.1909 12.5999 7.21337 12.5704C7.23585 12.541 7.28079 12.541 7.30326 12.5557L7.41562 12.5999C7.46057 12.6146 7.48304 12.6587 7.43809 12.6882L7.34821 12.7912C7.32573 12.8206 7.28079 12.8354 7.23585 12.8206C7.1909 12.8059 7.1909 12.7765 7.21337 12.7618V12.747C7.16843 12.7618 7.07854 12.747 7.01113 12.7323C6.89877 12.6882 6.78641 12.5851 6.92124 12.4379C7.05607 12.3055 7.25832 12.3055 7.37068 12.3643C7.55045 12.4379 7.55045 12.5115 7.50551 12.541C7.48304 12.5704 7.43809 12.5851 7.37068 12.5557C7.30326 12.5263 7.34821 12.4821 7.28079 12.4527C7.21337 12.4232 7.14596 12.4379 7.07854 12.5115C7.01113 12.5704 7.01113 12.6146 7.10101 12.6587C7.14596 12.6882 7.1909 12.6734 7.23585 12.6587V12.6293Z" fill="#EF6A60"/>
<path d="M8.08981 12.7762C8.13476 12.7468 8.20217 12.7321 8.24712 12.7615C8.29206 12.791 8.29206 12.8204 8.24712 12.8646L8.04487 13.0118C7.91004 13.1148 7.77521 13.0854 7.64038 13.0118C7.50554 12.9382 7.4606 12.8351 7.57296 12.7468L7.77521 12.5996C7.82015 12.5702 7.88757 12.5555 7.93251 12.5849C7.97745 12.6143 7.97745 12.6438 7.93251 12.6879L7.73026 12.8351C7.68532 12.8646 7.68532 12.9087 7.73026 12.9382C7.77521 12.9676 7.84262 12.9676 7.88757 12.9234L8.08981 12.7762Z" fill="#EF6A60"/>
<path d="M8.35938 12.9678C8.4268 12.9383 8.47174 12.9383 8.53916 12.9825L8.69646 13.1003C8.78635 13.1739 8.78635 13.2475 8.69646 13.2916C8.62904 13.321 8.56163 13.321 8.49421 13.2916C8.53915 13.321 8.53915 13.3652 8.49421 13.3946L8.44927 13.4241C8.4268 13.4388 8.40432 13.4535 8.38185 13.4682C8.33691 13.483 8.29196 13.483 8.26949 13.4535C8.22455 13.4241 8.22455 13.3946 8.26949 13.3652L8.33691 13.321C8.38185 13.2916 8.35938 13.2769 8.33691 13.2475L8.29196 13.2033L8.15713 13.2475C8.11219 13.2769 8.04477 13.2769 7.99983 13.2475C7.95488 13.218 7.95489 13.1739 8.0223 13.1444L8.35938 12.9678ZM8.4268 13.1886C8.47174 13.218 8.49421 13.218 8.53916 13.2033C8.5841 13.1886 8.56163 13.1591 8.53916 13.1297L8.47174 13.0708L8.38185 13.1297L8.4268 13.1886Z" fill="#EF6A60"/>
<path d="M8.7863 13.3798C8.76383 13.3503 8.76383 13.3209 8.80877 13.3062C8.85371 13.2914 8.89866 13.2914 8.92113 13.3356L9.14585 13.5858C9.19079 13.6153 9.16832 13.6447 9.12338 13.6594C9.07843 13.6742 9.03349 13.6742 9.01102 13.6447L8.9436 13.5711L8.629 13.7036C8.56158 13.733 8.51664 13.7183 8.47169 13.6889C8.44922 13.6594 8.44922 13.6153 8.51664 13.5858L8.83124 13.4534L8.7863 13.3798Z" fill="#EF6A60"/>
<path d="M7.43817 13.2624C7.30334 13.0858 6.92131 12.9239 6.60671 13.0122C6.38199 13.071 6.20221 13.1888 6.02244 13.2624C5.86513 13.2477 5.64041 13.3213 5.55053 13.3802C5.34828 13.5126 5.28086 13.7334 5.34828 13.9101C5.50558 14.2928 6.06738 14.5283 6.60671 14.6607C6.78648 14.7049 7.10109 14.7343 7.30334 14.6902C7.64041 14.6019 7.64041 14.4105 7.66289 14.2486C7.68536 13.9248 7.68536 13.5421 7.43817 13.2624Z" fill="#ED4B48"/>
<path d="M5.573 13.6009C5.573 13.6598 5.59547 13.7334 5.61794 13.7922C5.61794 13.807 5.66289 13.8511 5.68536 13.8217C5.68536 13.807 5.66289 13.7922 5.64041 13.8217C5.66289 13.8217 5.66289 13.8217 5.66289 13.807V13.7922C5.66289 13.7775 5.64041 13.7628 5.64041 13.7481C5.64041 13.6892 5.61794 13.645 5.61794 13.6009C5.61794 13.5862 5.573 13.5862 5.573 13.6009Z" fill="#EACE49"/>
<path d="M5.86521 13.5421C5.88768 13.5569 5.91016 13.5863 5.93263 13.601C5.93263 13.6157 5.9551 13.6157 5.9551 13.6304V13.6452V13.6304H5.97757C5.9551 13.6157 5.93263 13.6304 5.9551 13.6452C5.97757 13.6599 6.00004 13.6452 6.00004 13.6304C6.00004 13.6157 5.97757 13.601 5.97757 13.601C5.9551 13.5716 5.91016 13.5274 5.86521 13.5127C5.86521 13.5127 5.84274 13.5421 5.86521 13.5421Z" fill="#EACE49"/>
<path d="M6.29194 13.4538C6.33688 13.4832 6.38182 13.4979 6.4043 13.5126C6.42677 13.5274 6.44924 13.4979 6.42677 13.4832C6.38182 13.4685 6.33688 13.4538 6.31441 13.4243C6.31441 13.4243 6.26946 13.439 6.29194 13.4538Z" fill="#EACE49"/>
<path d="M6.60667 13.3211C6.67408 13.3505 6.71903 13.3652 6.78644 13.3947C6.80892 13.3947 6.83139 13.38 6.78644 13.3652C6.71903 13.3505 6.67408 13.3211 6.60667 13.3064C6.60667 13.2916 6.5842 13.3211 6.60667 13.3211Z" fill="#EACE49"/>
<path d="M6.98878 13.1447C7.01125 13.1447 7.01125 13.1152 6.98878 13.1152C6.96631 13.1152 6.96631 13.1447 6.98878 13.1447Z" fill="#EACE49"/>
<path d="M6.98855 13.1447C7.0335 13.1595 7.07844 13.1889 7.12338 13.2036C7.14586 13.2183 7.16833 13.1889 7.14586 13.1742C7.12338 13.1742 7.10091 13.1595 7.10091 13.1447C7.07844 13.13 7.05597 13.1153 7.0335 13.1006C6.98855 13.1153 6.96608 13.1447 6.98855 13.1447Z" fill="#EACE49"/>
<path d="M5.573 14.0131C5.59547 14.0572 5.61794 14.1014 5.66289 14.1308C5.68536 14.1456 5.70783 14.1308 5.68536 14.1161C5.64041 14.0867 5.61794 14.0425 5.61794 14.0131C5.59547 13.9837 5.573 13.9984 5.573 14.0131Z" fill="#EACE49"/>
<path d="M5.93262 13.9393C5.95509 13.9687 5.97756 13.9981 6.0225 14.0129C6.04498 14.0276 6.06745 14.0129 6.04498 13.9981C6.0225 13.9834 5.97756 13.954 5.95509 13.9246C5.95509 13.9098 5.93262 13.9246 5.93262 13.9393Z" fill="#EACE49"/>
<path d="M6.38187 13.7923C6.42681 13.8217 6.47176 13.8512 6.5167 13.8659C6.53917 13.8659 6.56164 13.8365 6.5167 13.8365C6.47176 13.8217 6.42681 13.7923 6.40434 13.7776C6.38187 13.7629 6.35939 13.7776 6.38187 13.7923Z" fill="#EACE49"/>
<path d="M6.76386 13.6746C6.78633 13.7041 6.8088 13.7335 6.85375 13.7482C6.87622 13.7629 6.89869 13.7482 6.87622 13.7335C6.85375 13.7188 6.83128 13.6893 6.78633 13.6599C6.78633 13.6452 6.74139 13.6599 6.76386 13.6746Z" fill="#EACE49"/>
<path d="M7.1011 13.5862C7.12357 13.601 7.14604 13.6157 7.16851 13.6451C7.19098 13.6598 7.21345 13.6451 7.21345 13.6304C7.19098 13.6157 7.16851 13.601 7.14604 13.5715C7.12357 13.5568 7.07862 13.5715 7.1011 13.5862Z" fill="#EACE49"/>
<path d="M7.37063 13.483C7.3931 13.5124 7.41557 13.5419 7.41557 13.5713C7.41557 13.586 7.46051 13.586 7.46051 13.5713C7.46051 13.5419 7.43804 13.5124 7.41557 13.4683C7.3931 13.4683 7.34815 13.4683 7.37063 13.483Z" fill="#EACE49"/>
<path d="M6.04471 14.3073C6.08965 14.3367 6.15707 14.3661 6.20201 14.3809C6.22448 14.3809 6.24696 14.3661 6.22448 14.3514C6.15707 14.3367 6.11212 14.3073 6.06718 14.2778C6.04471 14.2778 6.02224 14.2926 6.04471 14.3073Z" fill="#EACE49"/>
<path d="M6.42698 14.2189C6.47192 14.2336 6.4944 14.2631 6.53934 14.2631C6.56181 14.2631 6.58428 14.2483 6.53934 14.2336C6.4944 14.2189 6.47192 14.2042 6.42698 14.1895C6.42698 14.1895 6.40451 14.2042 6.42698 14.2189Z" fill="#EACE49"/>
<path d="M6.83149 14.0717C6.85396 14.1011 6.8989 14.1306 6.92137 14.16C6.94385 14.1747 6.96632 14.16 6.94385 14.1453C6.92137 14.1158 6.87643 14.1011 6.85396 14.0717C6.85396 14.0422 6.80902 14.057 6.83149 14.0717Z" fill="#EACE49"/>
<path d="M7.21339 13.9689C7.23586 13.9689 7.23586 13.9395 7.21339 13.9395C7.19092 13.9395 7.19092 13.9689 7.21339 13.9689Z" fill="#EACE49"/>
<path d="M7.19094 13.9544C7.21341 13.9838 7.23588 14.0133 7.25835 14.0427C7.25835 14.0574 7.3033 14.0574 7.3033 14.0427C7.3033 14.0133 7.28083 13.9691 7.23588 13.9397C7.21341 13.925 7.16847 13.9397 7.19094 13.9544Z" fill="#EACE49"/>
<path d="M7.50539 13.8657C7.52787 13.8951 7.52787 13.9246 7.50539 13.954C7.50539 13.9687 7.55034 13.9835 7.55034 13.954C7.55034 13.9246 7.55034 13.8804 7.55034 13.851C7.52786 13.8363 7.48292 13.8363 7.50539 13.8657Z" fill="#EACE49"/>
<path d="M6.5618 14.5576C6.60674 14.5723 6.67416 14.6017 6.74157 14.6017C6.76405 14.6017 6.76405 14.5723 6.74157 14.5723C6.67416 14.5723 6.62921 14.5576 6.58427 14.5429C6.5618 14.5134 6.53933 14.5429 6.5618 14.5576Z" fill="#EACE49"/>
<path d="M6.85379 14.4251C6.89873 14.4545 6.94368 14.4693 7.01109 14.484C7.03356 14.484 7.05604 14.4545 7.01109 14.4545C6.96615 14.4545 6.92121 14.4251 6.87626 14.4104C6.85379 14.3957 6.83132 14.4104 6.85379 14.4251Z" fill="#EACE49"/>
<path d="M7.16848 14.3367C7.19095 14.3515 7.19095 14.3809 7.21342 14.3956C7.23589 14.4103 7.25837 14.3956 7.25837 14.3809C7.23589 14.3515 7.23589 14.3367 7.21342 14.322C7.19095 14.3073 7.14601 14.322 7.16848 14.3367Z" fill="#EACE49"/>
<path d="M7.52808 14.2042C7.52808 14.2336 7.55055 14.2483 7.52808 14.2778C7.52808 14.2925 7.57302 14.3072 7.57302 14.2778C7.57302 14.2483 7.57302 14.2189 7.57302 14.1895C7.55055 14.1895 7.52808 14.1895 7.52808 14.2042Z" fill="#EACE49"/>
<path d="M7.07848 14.6165C7.12343 14.6312 7.19084 14.6459 7.25826 14.6459C7.28073 14.6459 7.28073 14.6165 7.25826 14.6165C7.21331 14.6165 7.1459 14.6018 7.10095 14.6018C7.05601 14.5871 7.05601 14.6165 7.07848 14.6165Z" fill="#EACE49"/>
<path d="M7.23587 14.5578C7.25834 14.5725 7.28081 14.5872 7.32575 14.5872C7.34822 14.5872 7.34822 14.5578 7.32575 14.5578L7.30328 14.543L7.28081 14.5283C7.23587 14.5283 7.21339 14.543 7.23587 14.5578Z" fill="#EACE49"/>
<path d="M7.48316 14.4547C7.50563 14.4547 7.50563 14.4253 7.48316 14.4253C7.46069 14.4253 7.46069 14.4547 7.48316 14.4547Z" fill="#EACE49"/>
<path d="M7.46045 14.4546C7.46045 14.484 7.46045 14.4987 7.46045 14.5282C7.46045 14.5429 7.50539 14.5576 7.50539 14.5282C7.50539 14.4987 7.50539 14.4693 7.50539 14.4398C7.48292 14.4251 7.46045 14.4251 7.46045 14.4546Z" fill="#EACE49"/>
<path d="M6.0449 13.056C5.95502 12.9971 5.91007 12.8941 5.86513 12.8205C5.77524 12.8352 5.573 12.8941 5.50558 12.9529C5.64041 13.0118 5.79771 13.0854 5.91007 13.1737C5.61794 13.1443 5.28086 13.2768 5.07861 13.3945C5.23592 13.3945 5.37075 13.3945 5.52805 13.3945C5.64041 13.3945 5.8876 13.3798 5.97749 13.3209L5.93255 13.3356C6.08985 13.2915 6.24715 13.2326 6.35951 13.1443C6.42693 13.1001 6.51682 13.0412 6.56176 12.9824C6.6067 12.9235 6.6067 12.8352 6.69659 12.791C6.40446 12.791 6.13479 12.8793 6.0449 13.056Z" fill="#53B748"/>
<g opacity="0.5">
<path opacity="0.5" d="M0.943604 9.30297C0.966075 9.67096 1.64023 9.81815 2.08967 9.90647C2.76383 10.0389 3.48293 10.1125 4.17956 10.1567C5.16832 10.2156 6.15709 10.1714 7.14585 10.1125C7.84248 10.0684 8.629 10.0095 9.23574 9.75927C9.5054 9.64152 9.75259 9.46488 9.84248 9.24409C9.90989 9.05274 9.79754 8.86139 9.59529 8.72891C9.03349 8.34621 8.08967 8.25789 7.3481 8.19901C6.38181 8.1107 5.43799 8.14014 4.47169 8.16958C3.68518 8.18429 2.85372 8.21373 2.13461 8.41981C1.73012 8.53756 1.32563 8.72891 1.14585 9.00858C1.19079 9.00858 1.25821 9.0233 1.30315 9.0233C1.30315 9.00858 1.30315 8.99386 1.30315 8.97914C1.30315 8.90555 1.14585 8.90555 1.14585 8.97914C1.14585 8.99386 1.14585 9.00858 1.14585 9.0233C1.14585 9.08218 1.28068 9.0969 1.30315 9.03802C1.46046 8.77307 1.88742 8.59644 2.29192 8.4934C2.67394 8.39037 3.10091 8.34621 3.5054 8.31677C3.9099 8.28733 4.31439 8.27261 4.71888 8.27261C5.19079 8.25789 5.6627 8.24317 6.13461 8.25789C6.65147 8.25789 7.19079 8.28733 7.70765 8.34621C8.13461 8.39037 8.58405 8.46396 8.98855 8.58172C9.30315 8.68475 9.64023 8.81723 9.73012 9.05274C9.82001 9.30297 9.48293 9.53848 9.19079 9.67095C8.629 9.92118 7.86495 9.96534 7.19079 10.0095C6.29192 10.0684 5.39304 10.1125 4.47169 10.0684C3.77506 10.0389 3.07843 9.95062 2.40428 9.84759C1.99978 9.77399 1.19079 9.65624 1.16832 9.30297C1.10091 9.22937 0.943604 9.22937 0.943604 9.30297Z" fill="white"/>
</g>
<path opacity="0.1" d="M6.96608 8.33129C6.60653 8.13993 5.9099 8.18409 5.46046 8.18409C4.2245 8.18409 2.89866 8.24297 1.73012 8.50792C1.37057 8.59623 0.898662 8.74343 0.718886 8.97894C0.606527 9.06726 0.516639 9.18501 0.539111 9.31749C0.561583 9.59715 1.05596 9.70019 1.39304 9.77379C1.82001 9.87682 2.29192 9.9357 2.71889 9.8621C3.43799 9.74435 2.80877 9.53828 2.87619 9.22917C2.96608 8.86118 4.11214 8.83175 4.51664 8.80231C5.14585 8.75815 5.79754 8.71399 6.42675 8.69927C6.74136 8.71399 7.41552 8.5668 6.96608 8.33129Z" fill="white"/>
</g>
<defs>
<clipPath id="clip0_678_3973">
<rect width="24" height="16" fill="white"/>
</clipPath>
</defs>
</svg>
