<svg width="46" height="45" viewBox="0 0 46 45" fill="none" xmlns="http://www.w3.org/2000/svg">
<g clip-path="url(#clip0_678_3738)">
<path d="M1.11548 14.1696C1.30779 18.2249 9.1924 21.7917 22.5386 21.7917C36.3462 21.7917 43.8462 19.1044 43.9616 14.1696C44.077 9.23472 36.6155 5.66794 22.8462 5.7168C11.3078 5.76566 1.61548 6.79172 1.11548 14.1696Z" fill="#F7D3B0"/>
<path d="M2.03857 14.1208C2.23088 17.7365 9.76934 20.9124 22.5386 20.9124C35.7309 20.9124 42.9232 18.5182 43.0386 14.1208C43.154 9.72344 36.0001 6.49868 22.8463 6.5964C11.7693 6.64526 2.50011 7.5736 2.03857 14.1208Z" fill="#E2BFA3"/>
<path d="M2.03857 14.1206C2.19242 17.0033 7.03857 19.6418 15.577 20.5701C15.1155 20.1792 14.6924 19.7395 14.2309 19.2998C11.6155 16.6125 9.50011 13.0946 8.15396 9.1369C8.03857 8.79488 7.92319 8.45286 7.8078 8.11084C4.42319 9.18576 2.26934 11.0424 2.03857 14.1206Z" fill="#CEAD97"/>
<path d="M11.6154 18.3227C11.4615 18.1272 11.2692 17.9318 11.1538 17.6386C11.0384 17.3455 11 17.0523 10.9615 16.7592C10.8077 15.9285 10.3077 15.2445 9.65383 14.9513C9.49998 14.8536 9.30767 14.8048 9.19229 14.6582C9.0769 14.4627 9.0769 14.2673 9.0769 14.023C8.99998 13.1435 8.49998 12.4106 7.84613 12.1175C7.65383 12.0197 7.42306 11.9709 7.26921 11.8243C6.8846 11.4823 6.96152 10.7494 6.73075 10.2119C6.61537 9.91877 6.3846 9.72333 6.19229 9.47903C5.84613 9.13701 5.49998 8.74613 5.15383 8.40411C4.80767 8.01323 4.42306 7.67121 3.96152 7.57349C3.73075 7.52463 3.46152 7.57349 3.26921 7.37805C3.0769 7.23147 3.03844 6.93831 2.92306 6.69401C2.49998 5.61909 1.23075 5.32593 0.499981 6.10769C-0.230788 6.88945 -0.230788 8.50183 0.499981 9.28359C-1.87829e-05 9.82105 -0.0384803 10.8471 0.23075 11.58C0.499981 12.3129 1.03844 12.8992 1.5769 13.3878C1.69229 13.5344 1.84613 13.6321 1.92306 13.8276C2.03844 14.1207 1.99998 14.4139 1.99998 14.707C1.99998 16.0751 2.80767 17.3943 3.8846 17.6875L12.1154 21.7429C12.5 20.6191 12.2692 19.2022 11.6154 18.3227Z" fill="#6FB56B"/>
<path d="M9.69224 10.6517C9.2307 9.91885 8.80763 9.18595 8.5384 8.35533C8.26917 7.52471 8.19224 6.49865 8.46147 5.66803C8.5384 5.47259 8.65378 5.22829 8.65378 5.03286C8.69224 4.7397 8.61532 4.4954 8.57686 4.20224C8.42301 3.22504 8.7307 2.19898 9.30763 1.5638C9.88455 0.92862 10.7307 0.73318 11.4615 1.0752C11.923 0.586601 12.6153 0.488881 13.1538 0.8309C13.6922 1.17292 14.0384 1.95468 13.9999 2.68758C14.5769 2.49214 15.1538 2.98074 15.4615 3.61592C15.7692 4.2511 15.8076 5.03286 15.8461 5.76575C16.6922 5.71689 17.5384 6.20549 18.0769 7.03611C18.5769 7.86673 18.7692 9.08823 18.4999 10.1143C19.3076 10.9449 20.0769 11.9221 20.2692 13.2413C20.4615 14.5117 19.8076 16.0752 18.7692 16.1241C19.3461 16.1729 19.6153 17.1501 19.3461 17.8342C19.1153 18.4693 18.5384 18.8602 18.0384 19.1534C16.9615 19.7397 15.8461 20.1306 14.6922 20.326C13.9999 20.4237 13.3076 20.4726 12.6538 20.1794C11.2307 19.4954 10.5769 17.541 10.0769 15.8798C9.57686 14.414 8.15378 11.8732 9.69224 10.6517Z" fill="#81CC7A"/>
<path d="M29.7692 6.69432C30.1538 5.96142 30.923 5.6194 31.5769 5.8637C31.6538 4.78878 32.3461 3.86044 33.1538 3.71386C33.9615 3.56728 34.8461 4.20246 35.1923 5.17966C35.7307 4.6422 36.5769 5.27738 36.7307 6.108C36.8846 6.93862 36.5384 7.8181 36.1153 8.50214C36.6538 8.69758 36.923 9.57705 36.8461 10.2611C36.7692 10.9451 36.423 11.5803 36.0769 12.2155C36.8076 12.8995 36.923 14.3165 36.5 15.2937C36.0769 16.2709 35.1538 16.8572 34.2692 16.906C33.3461 16.9549 32.5769 16.4663 31.7307 15.9777C28.8461 20.4728 25.0384 9.96793 29.8076 9.18617C29.4615 8.40442 29.3846 7.42722 29.7692 6.69432Z" fill="#6FB56B"/>
<path d="M33.7691 11.0423C34.1537 10.2116 34.6153 9.47873 35.1922 8.89242C35.6153 8.45268 36.1153 8.15952 36.6153 7.86636C37.9614 7.03574 39.6153 6.15626 40.8845 7.13346C41.1153 7.3289 41.346 7.52434 41.5768 7.71978C42.1153 8.0618 42.7691 7.96408 43.3845 7.96408C43.9999 7.96408 44.6537 8.0618 45.1537 8.50154C45.6922 8.94127 46.0383 9.67417 45.9999 10.4559C45.9614 10.8468 45.8076 11.2377 45.8076 11.6774C45.8076 12.0195 45.923 12.3615 45.9614 12.7523C46.0768 13.6318 45.6153 14.6579 44.8845 14.8045C44.6537 14.8533 44.3845 14.8045 44.1153 14.8533C42.9999 15.0488 42.5383 16.8566 41.5383 17.394C41.2307 17.5406 40.923 17.5895 40.6153 17.6872C40.3076 17.8338 39.9999 18.0292 39.6922 18.2247C37.7691 19.3484 35.2691 18.7621 33.8076 16.8077C32.4999 14.9999 32.8845 12.8989 33.7691 11.0423Z" fill="#81CC7A"/>
<path d="M30.1154 17.6385C30.2308 17.6874 30.3077 17.7362 30.4231 17.6874C30.5385 17.6385 30.5769 17.4431 30.6154 17.2965C30.8462 16.417 31.6923 15.8796 32.4231 16.1727C32.5769 16.2216 32.7308 16.3193 32.8846 16.3193C33.1154 16.2704 33.2692 16.0261 33.4616 15.8796C33.9231 15.4398 34.6154 15.4887 35.0385 15.9773C35.1539 16.1239 35.2692 16.2704 35.3846 16.3682C35.5385 16.4659 35.7308 16.417 35.8846 16.5147C36.4615 16.7102 36.5769 17.7851 37.1539 17.9805C37.5385 17.1988 38.4615 17.0522 39.0769 17.5897C39.6923 18.1271 39.9231 19.1043 39.8846 20.0327C39.7692 22.0848 38.1923 23.7949 36.6154 23.6483C35.8846 23.5994 35.1923 23.1597 34.4615 23.1597C33.7692 23.1597 33.1154 23.5506 32.4616 23.8437C30.8846 24.6255 29.3077 24.3812 28.8462 22.0848C28.5385 20.7656 28.1154 17.0522 30.1154 17.6385Z" fill="#6FB56B"/>
<path d="M31.4615 6.69385C31.4615 6.69385 29.7307 10.9447 34.2307 13.4365C38.7307 15.9284 39.9999 11.0912 39.9999 11.0912L31.4615 6.69385Z" fill="#E24C24"/>
<path d="M39.9218 11.1875C40.307 10.0174 38.7287 8.06451 36.3965 6.82564C34.0644 5.58678 31.8616 5.53104 31.4765 6.70115C31.0913 7.87126 32.6696 9.82413 35.0017 11.063C37.3338 12.3019 39.5366 12.3576 39.9218 11.1875Z" fill="#FF5A27"/>
<path d="M39.5669 10.9989C39.9029 9.97819 38.4436 8.23081 36.3075 7.09605C34.1713 5.96129 32.1673 5.86885 31.8313 6.88958C31.4953 7.91032 32.9546 9.6577 35.0907 10.7925C37.2269 11.9272 39.2309 12.0197 39.5669 10.9989Z" fill="#FF8B78"/>
<path d="M34.423 7.42676C34.2307 7.42676 33.9999 7.47562 33.9615 7.71992C33.923 7.81764 33.923 7.91536 33.8846 8.01308C33.8461 8.1108 33.7692 8.1108 33.7307 8.20852C33.6923 8.25738 33.7307 8.3551 33.7307 8.40396C33.8076 8.8437 34.1923 9.03914 34.5384 9.13686C35.3846 9.47888 36.2307 9.86975 37.0769 10.2118C37.3076 10.3095 37.5769 10.4072 37.7307 10.2118C37.8846 10.0652 37.8846 9.77204 37.8076 9.52774C37.7307 9.28344 37.5769 9.13686 37.423 8.99028C36.9615 8.55054 36.4615 8.1108 35.923 7.8665C35.4615 7.67106 34.9999 7.42676 34.423 7.42676Z" fill="#FF5A27"/>
<path d="M32.5768 7.32893C32.7307 7.37779 32.8845 7.47551 33.0383 7.52437C33.0768 7.52437 33.1153 7.52437 33.1153 7.47551C33.1537 7.47551 33.1537 7.42665 33.1537 7.37779C33.1537 7.28007 33.1153 7.23121 33.0383 7.18235C32.9999 7.18235 32.923 7.13349 32.8845 7.13349H32.923C32.8076 7.08463 32.7307 7.08463 32.6153 7.03577C32.5383 6.98691 32.4614 7.03577 32.4614 7.13349C32.4999 7.18235 32.4999 7.32893 32.5768 7.32893Z" fill="#FFB164"/>
<path d="M33.1154 6.93832C33.2692 7.03604 33.3846 6.74288 33.2308 6.64516C33.0769 6.54744 32.9615 6.8406 33.1154 6.93832Z" fill="#FFB164"/>
<path d="M33.1153 6.93772C33.1922 6.98658 33.2691 7.03544 33.3845 7.0843C33.4229 7.0843 33.4614 7.0843 33.4999 7.0843C33.5383 7.0843 33.5768 7.03544 33.5768 6.98658C33.5768 6.93772 33.5768 6.88886 33.5768 6.84C33.5768 6.79114 33.5383 6.79114 33.4999 6.74228C33.4229 6.69342 33.346 6.64456 33.2306 6.5957C33.1922 6.5957 33.1537 6.5957 33.1153 6.5957C33.0768 6.5957 33.0383 6.64456 33.0383 6.69342C33.0383 6.74228 33.0383 6.79114 33.0383 6.84C33.0768 6.88886 33.0768 6.88886 33.1153 6.93772Z" fill="#FFB164"/>
<path d="M34.1152 6.59571C34.1152 6.64457 34.1152 6.64457 34.1152 6.69343C34.1152 6.74229 34.1152 6.74229 34.1537 6.79115C34.1922 6.84001 34.1922 6.88887 34.2691 6.93773C34.2691 6.93773 34.3075 6.93773 34.3075 6.98659H34.346H34.3845C34.3845 6.98659 34.4229 6.98659 34.4229 6.93773V6.88887C34.4229 6.84001 34.4229 6.84001 34.4229 6.79115C34.4229 6.74229 34.3845 6.69343 34.3845 6.69343C34.3845 6.69343 34.3845 6.69343 34.4229 6.74229L34.3845 6.69343C34.3845 6.69343 34.3845 6.69343 34.3845 6.74229C34.3845 6.74229 34.3845 6.69343 34.346 6.69343V6.74229V6.69343V6.74229V6.69343C34.346 6.69343 34.346 6.64457 34.3075 6.64457L34.2691 6.59571H34.2306C34.1922 6.59571 34.1537 6.59571 34.1537 6.64457C34.1537 6.54685 34.1152 6.59571 34.1152 6.59571Z" fill="#FFB164"/>
<path d="M34.9999 6.88929C34.9999 6.93815 34.9614 6.98701 34.9614 7.08473V7.13359C34.9614 7.13359 34.9614 7.18245 34.9999 7.18245L35.0383 7.23131H35.0768C35.1153 7.23131 35.1537 7.23131 35.1537 7.18245C35.1537 7.18245 35.1537 7.18245 35.1922 7.13359C35.1922 7.13359 35.2307 7.08473 35.2307 7.03587C35.2307 6.98701 35.2691 6.93815 35.2691 6.84043V6.79157C35.2691 6.79157 35.2691 6.74271 35.2307 6.74271L35.1922 6.69385H35.1537C35.1153 6.69385 35.0768 6.69385 35.0768 6.74271C35.0768 6.74271 35.0768 6.74271 35.0383 6.79157C34.9999 6.84043 34.9999 6.84043 34.9999 6.88929Z" fill="#FFB164"/>
<path d="M36.5 7.91529C36.5385 7.86643 36.6154 7.86643 36.6539 7.81757C36.6539 7.81757 36.6923 7.81757 36.6923 7.76871L36.7308 7.71985V7.67099V7.62213C36.7308 7.62213 36.7308 7.62213 36.7308 7.57327L36.6923 7.52441H36.6539C36.6154 7.52441 36.6154 7.52441 36.577 7.52441C36.5385 7.57327 36.4616 7.57327 36.4231 7.62213C36.4231 7.62213 36.3847 7.62213 36.3847 7.67099L36.3462 7.71985V7.76871V7.81757C36.3462 7.81757 36.3462 7.81757 36.3462 7.86643L36.3847 7.91529H36.4231C36.4616 7.91529 36.5 7.91529 36.5 7.91529Z" fill="#FFB164"/>
<path d="M37.4999 8.69697C37.5768 8.69697 37.6538 8.74583 37.7691 8.74583C37.8076 8.74583 37.8461 8.74583 37.8461 8.69697C37.8845 8.69697 37.8845 8.64811 37.8845 8.59925C37.8845 8.55039 37.8845 8.50153 37.8461 8.50153C37.8076 8.45267 37.8076 8.45267 37.7691 8.45267C37.6922 8.45267 37.6153 8.40381 37.4999 8.40381C37.4614 8.40381 37.423 8.40381 37.423 8.45267C37.3845 8.45267 37.3845 8.50153 37.3845 8.55039C37.3845 8.59925 37.3845 8.64811 37.423 8.64811C37.4614 8.64811 37.4614 8.69697 37.4999 8.69697Z" fill="#FFB164"/>
<path d="M38.1924 9.52766C38.3077 9.62538 38.4616 9.67424 38.577 9.67424C38.6154 9.67424 38.6539 9.67424 38.6539 9.62538C38.6923 9.62538 38.6923 9.57652 38.6923 9.52766C38.6923 9.4788 38.6923 9.42994 38.6539 9.42994C38.6154 9.38108 38.6154 9.38108 38.577 9.38108C38.5385 9.38108 38.5385 9.38108 38.5 9.38108H38.5385C38.4616 9.33222 38.3462 9.28336 38.2693 9.2345C38.1924 9.18564 38.1154 9.2345 38.1154 9.33222C38.077 9.38108 38.1154 9.4788 38.1924 9.52766Z" fill="#FFB164"/>
<path d="M38.4231 10.4562C38.5385 10.554 38.6154 10.6517 38.7308 10.7494C38.7693 10.7983 38.8077 10.7983 38.8077 10.7983C38.8462 10.7983 38.8846 10.7494 38.8846 10.7494C38.9231 10.7005 38.9231 10.554 38.8462 10.5051C38.7308 10.4074 38.6539 10.3097 38.5385 10.2119C38.5 10.1631 38.4616 10.1631 38.4616 10.1631C38.4231 10.1631 38.3846 10.2119 38.3846 10.2119C38.3462 10.3097 38.3462 10.4074 38.4231 10.4562Z" fill="#FFB164"/>
<path d="M37.7307 10.7004C37.7692 10.7981 37.8076 10.8958 37.8461 10.9935C37.8461 10.9935 37.8461 11.0424 37.8846 11.0424L37.923 11.0912C37.9615 11.0912 37.9999 11.0912 38.0384 11.0912C38.0769 11.0912 38.0769 11.0424 38.1153 10.9935C38.1153 10.9447 38.1153 10.8958 38.1153 10.8469C38.0769 10.7492 38.0384 10.6515 37.9999 10.5538C37.9999 10.5538 37.9999 10.5049 37.9615 10.5049L37.923 10.4561C37.8846 10.4561 37.8461 10.4561 37.8076 10.4561C37.7692 10.4561 37.7692 10.5049 37.7307 10.5538C37.7307 10.6026 37.6923 10.6515 37.7307 10.7004Z" fill="#FFB164"/>
<path d="M36.7307 10.7004V10.7492C36.7307 10.7492 36.7307 10.7492 36.7307 10.7004C36.7307 10.7492 36.7307 10.7981 36.7307 10.7981V10.7492C36.7307 10.7492 36.7307 10.7492 36.7307 10.7981V10.8469V10.8958C36.7307 10.8958 36.7307 10.9447 36.7692 10.9447L36.8077 10.9935C36.8461 10.9935 36.8846 10.9935 36.923 10.9935C36.9615 10.9935 37 10.9447 37 10.8958C37 10.8469 37.0384 10.7981 37.0384 10.7492C37.0384 10.7004 37.0384 10.6515 37.0384 10.6026C37.0384 10.5538 37 10.5049 37 10.5049C37 10.5049 36.9615 10.5049 36.9615 10.4561H36.923C36.8846 10.4561 36.8461 10.5049 36.8461 10.5049V10.5538C36.7307 10.6515 36.6923 10.7004 36.7307 10.7004Z" fill="#FFB164"/>
<path d="M35.3847 10.2608C35.3847 10.3097 35.3847 10.3097 35.3847 10.3585V10.3097C35.3847 10.3585 35.3462 10.4074 35.3462 10.4074V10.4562V10.5051C35.3462 10.554 35.3847 10.6028 35.4231 10.6028C35.4616 10.6028 35.5 10.6028 35.5385 10.6028C35.5385 10.6028 35.5385 10.6028 35.577 10.6028L35.6154 10.554C35.6154 10.5051 35.6539 10.4562 35.6539 10.4562C35.6539 10.4074 35.6923 10.3585 35.6923 10.3097C35.6923 10.2608 35.6923 10.2119 35.6539 10.2119L35.6154 10.1631H35.577C35.5385 10.1631 35.5 10.1631 35.5 10.2119C35.3847 10.1631 35.3847 10.2119 35.3847 10.2608Z" fill="#FFB164"/>
<path d="M34.4615 9.7234V9.77226V9.7234C34.4615 9.77226 34.423 9.77226 34.423 9.77226C34.423 9.77226 34.4615 9.77226 34.4615 9.7234C34.423 9.77226 34.423 9.82112 34.3845 9.82112C34.3845 9.82112 34.3845 9.82112 34.423 9.82112C34.423 9.82112 34.3845 9.82112 34.3845 9.86998C34.3845 9.86998 34.3461 9.86997 34.3461 9.91883L34.3076 9.96769C34.3076 10.0166 34.3076 10.0654 34.3076 10.1143C34.3076 10.1631 34.3461 10.1631 34.3845 10.212H34.423C34.4615 10.212 34.4615 10.212 34.4999 10.212C34.5384 10.212 34.5384 10.1631 34.5768 10.1631L34.6153 10.1143C34.6538 10.0654 34.6538 10.0654 34.6538 10.0166C34.6538 9.96769 34.6922 9.96769 34.6922 9.91883C34.6922 9.86997 34.6922 9.82112 34.6922 9.77226C34.6922 9.7234 34.6538 9.67454 34.6153 9.67454C34.5768 9.67454 34.5384 9.67454 34.4999 9.67454C34.4999 9.62568 34.4615 9.67454 34.4615 9.7234Z" fill="#FFB164"/>
<path d="M33.6539 8.69684C33.6154 8.69684 33.577 8.7457 33.5385 8.7457H33.577C33.5001 8.7457 33.4616 8.79456 33.3847 8.79456C33.3462 8.79456 33.3077 8.84342 33.3077 8.84342C33.2693 8.89228 33.2693 8.94114 33.2693 8.94114C33.2693 8.99 33.3077 9.03886 33.3077 9.03886H33.3462C33.3847 9.03886 33.3847 9.03886 33.4231 9.03886C33.5385 9.03886 33.6539 8.99 33.7693 8.94114C33.8078 8.94114 33.8078 8.89228 33.8462 8.84342C33.8462 8.79456 33.8462 8.7457 33.8462 8.69684C33.8462 8.64798 33.8078 8.64798 33.7693 8.59912C33.7308 8.69684 33.6924 8.69684 33.6539 8.69684Z" fill="#FFB164"/>
<path d="M32.6153 8.20823C32.6537 8.20823 32.6922 8.15937 32.7307 8.15937C32.7307 8.15937 32.7691 8.15937 32.7691 8.11051L32.8076 8.06165V8.01279V7.96393C32.8076 7.96393 32.8076 7.96393 32.8076 7.91507L32.7691 7.86621H32.7307C32.6922 7.86621 32.6922 7.86621 32.6537 7.86621C32.6153 7.86621 32.5768 7.91507 32.5383 7.91507C32.5383 7.91507 32.4999 7.91507 32.4999 7.96393L32.4614 8.01279V8.06165V8.11051C32.4614 8.11051 32.4614 8.11051 32.4614 8.15937L32.4999 8.20823H32.5383C32.5768 8.20823 32.5768 8.20823 32.6153 8.20823Z" fill="#FFB164"/>
<path opacity="0.24" d="M31.9231 10.6514C32.1155 10.9935 32.2693 11.3355 32.577 11.4821C32.6924 11.5309 32.8078 11.5798 32.8847 11.4332C32.9232 11.3355 32.8847 11.1889 32.8462 11.0912C32.7308 10.8957 32.6155 10.6514 32.577 10.4071C32.5001 9.9674 32.4232 9.03906 31.8847 9.03906C31.3078 9.08792 31.7693 10.4071 31.9231 10.6514Z" fill="white"/>
<path d="M17.9614 14.0718C17.5768 13.0458 17.5384 11.7754 18.0768 10.8471C18.5384 10.0653 19.3076 9.62559 20.0383 9.23471C19.0768 8.11093 18.846 6.2054 19.4999 4.78846C20.1537 3.37152 21.6153 2.58976 22.923 2.93178C22.6153 1.71028 23.423 0.342203 24.4999 0.0490438C25.5383 -0.244116 26.6922 0.439923 27.2691 1.51484C27.9999 0.977383 29.0768 1.17282 29.6153 1.95458C30.1537 2.7852 30.1153 4.05556 29.4999 4.78846C30.5383 5.91224 30.6537 8.01321 29.7307 9.28357C30.3076 9.86989 30.6153 10.7494 30.4999 11.6288C30.423 12.5083 29.9614 13.2901 29.3076 13.7298C29.4614 14.3161 29.5768 14.9513 29.346 15.4888C29.0768 16.124 28.423 16.3683 27.846 16.3683C27.2691 16.3683 26.6537 16.2217 26.0768 16.3683C26.3076 17.0523 25.846 17.8341 25.2691 18.1272C24.6922 18.4204 24.0383 18.3227 23.423 18.2738C22.7307 18.1761 22.0383 18.0784 21.3076 18.0295C20.923 17.9806 20.4999 17.9318 20.1922 17.6386C19.8076 17.2966 19.6922 16.5148 19.346 16.0751C18.846 15.4399 18.3076 14.9513 17.9614 14.0718Z" fill="#89E269"/>
<path d="M31 14.0719L30.9231 15.8308C30.9231 15.8308 31.6154 18.3227 34.6154 18.8113C37.9616 19.3487 40.4231 17.9807 40.4616 15.44C40.4616 15.0002 40.0385 13.9253 40.0385 13.9253L30.9616 14.023L31 14.0719Z" fill="#59B24F"/>
<path d="M40.086 14.5579C40.1531 12.914 38.1782 11.4477 35.6749 11.2828C33.1717 11.118 31.088 12.317 31.0209 13.9609C30.9538 15.6048 32.9287 17.0711 35.432 17.236C37.9352 17.4009 40.0189 16.2018 40.086 14.5579Z" fill="#84D17D"/>
<path d="M39.8078 14.4627C39.8463 15.7331 38.0001 16.8569 35.6539 16.7592C33.3463 16.6614 31.3078 15.2934 31.2693 14.023C31.2309 12.7526 33.2693 11.4823 35.577 11.58C37.9232 11.7266 39.7693 13.1924 39.8078 14.4627Z" fill="#B0EDA9"/>
<path d="M32.9614 13.7787C32.8844 13.681 32.8075 13.5833 32.769 13.4856C32.769 13.2901 32.9614 13.1924 33.1152 13.1924C33.4614 13.1436 33.769 13.2413 34.0767 13.3879C33.9614 13.2413 33.8844 13.0458 33.846 12.8993C33.846 12.8504 33.8075 12.8015 33.846 12.8015C33.8844 12.7038 33.9614 12.7038 34.0383 12.7527C34.3844 12.9481 34.7306 13.1924 35.0767 13.4856C34.9998 13.2901 34.9229 13.0947 34.8844 12.8993C34.8844 12.7038 34.9229 12.4595 35.0767 12.3618C35.269 12.2152 35.4998 12.3618 35.6537 12.5572C35.8075 12.7527 35.8844 13.0458 35.9229 13.2901C36.1921 12.997 36.5767 12.8504 36.9614 12.8993C37.0383 12.8993 37.1537 12.9481 37.1921 13.0458C37.269 13.1924 37.1537 13.339 37.0383 13.4367C37.4614 13.2901 37.9614 13.4367 38.3075 13.8276C38.346 13.8765 38.3844 13.9253 38.3844 14.023C38.3844 14.0719 38.346 14.1208 38.346 14.1208C38.1921 14.3651 37.9614 14.5116 37.7306 14.5605C37.4998 14.6094 37.2306 14.6094 36.9998 14.6094C37.2306 14.7071 37.4614 14.8537 37.6921 15.0491C37.7306 15.0491 37.7306 15.098 37.769 15.1468C37.769 15.1957 37.769 15.1957 37.7306 15.2445C37.5767 15.5866 37.2306 15.6843 36.9229 15.5377C36.6152 15.44 36.3844 15.1957 36.1152 14.9514C36.2306 15.1468 36.346 15.3911 36.3075 15.6354C36.269 15.8797 36.1152 16.0751 35.9229 16.0263C35.846 15.9774 35.769 15.9286 35.7306 15.8309C35.5383 15.5866 35.3844 15.2934 35.3075 15.0002C35.3075 15.3911 35.0383 15.7331 34.6921 15.782C34.6152 15.782 34.5383 15.782 34.4614 15.6843C34.3844 15.5865 34.3844 15.44 34.4229 15.3423C34.4614 15.2445 34.5383 15.1468 34.6152 15.0491C34.3844 15.2445 34.1152 15.3911 33.8844 15.1957C33.8075 15.1468 33.769 15.0491 33.769 14.9514C33.769 14.9025 33.846 14.8537 33.8844 14.8048C33.9998 14.7071 34.269 14.6094 34.3075 14.4628C33.769 14.2673 33.346 14.1696 32.9614 13.7787Z" fill="#C1FFB8"/>
<path d="M16.0769 23.2574L17.5769 24.7232C17.5769 24.7232 20.6154 25.9447 24.1923 23.1108C28.2308 19.9349 29.6539 16.2215 27.3846 14.1694C27 13.8274 25.5385 13.4365 25.5385 13.4365L15.9231 23.2085L16.0769 23.2574Z" fill="#59B24F"/>
<path d="M22.6349 21.8601C25.6857 19.6141 27.4768 16.2981 26.6354 14.4537C25.794 12.6093 22.6387 12.9348 19.5879 15.1808C16.5371 17.4268 14.7461 20.7428 15.5874 22.5872C16.4288 24.4316 19.5841 24.1061 22.6349 21.8601Z" fill="#84D17D"/>
<path d="M25.8079 14.1207C26.9618 15.0979 26.0387 17.9807 23.4618 20.3748C20.8849 22.7689 17.5003 23.8927 16.3079 22.9155C15.1541 21.9383 16.1541 18.8113 18.6926 16.4171C21.231 14.023 24.6541 13.1435 25.8079 14.1207Z" fill="#B0EDA9"/>
<path d="M17.8848 20.9608C17.7309 21.0097 17.5386 21.0097 17.4232 20.912C17.2309 20.7654 17.3463 20.4722 17.5002 20.2768C17.8079 19.8859 18.2309 19.5927 18.6925 19.3484C18.4617 19.3484 18.1925 19.2996 18.0002 19.2019C17.9617 19.2019 17.8848 19.153 17.8848 19.1041C17.8079 19.0064 17.9617 18.9087 18.0771 18.8598C18.6156 18.6155 19.2309 18.4201 19.8079 18.3224C19.5386 18.2735 19.3079 18.2247 19.1156 18.0781C18.9232 17.9315 18.8079 17.6872 18.8463 17.4429C18.9232 17.1497 19.2694 16.9543 19.6156 16.9543C19.9617 16.9543 20.2694 17.1009 20.5771 17.2475C20.6156 16.71 20.8848 16.1725 21.3079 15.8305C21.4232 15.7328 21.5386 15.6839 21.6925 15.6839C21.8848 15.7328 21.9232 15.9771 21.8848 16.1725C22.1925 15.5862 22.8848 15.1953 23.5771 15.1465C23.654 15.1465 23.7694 15.1465 23.8463 15.1953C23.8848 15.2442 23.8848 15.2931 23.9232 15.3419C24.0002 15.6839 23.8848 16.0748 23.654 16.368C23.4617 16.6611 23.1925 16.9543 22.9232 17.1986C23.2694 17.0032 23.654 16.9054 24.0771 16.8077C24.1156 16.8077 24.1925 16.8077 24.2309 16.8077C24.2694 16.8077 24.2694 16.8566 24.3079 16.9054C24.4233 17.3452 24.154 17.7849 23.7309 18.0292C23.3079 18.2735 22.8079 18.3224 22.3463 18.4201C22.654 18.4201 22.9617 18.5178 23.154 18.7621C23.3463 18.9576 23.3079 19.3484 23.0771 19.495C22.9617 19.5439 22.8079 19.5927 22.6925 19.5927C22.2694 19.5927 21.8848 19.5439 21.5002 19.3973C21.8463 19.7393 21.8848 20.2768 21.5386 20.6677C21.4617 20.7654 21.3463 20.8631 21.1925 20.8631C21.0386 20.8631 20.8848 20.7654 20.8463 20.6188C20.7694 20.4722 20.8079 20.3256 20.8079 20.1791C20.7309 20.5699 20.5771 21.0097 20.154 21.1074C20.0386 21.1563 19.8848 21.1074 19.8079 21.0097C19.7694 20.9608 19.7694 20.8631 19.8079 20.8142C19.8463 20.6188 20.0386 20.2279 19.9617 20.0813C19.1925 20.4234 18.654 20.8142 17.8848 20.9608Z" fill="#C1FFB8"/>
<path d="M18.0769 2.88288L16.6923 3.66464C16.6923 3.66464 15.0769 5.76561 16.0384 9.72327C17.1153 14.1695 19.2692 16.6125 21.2307 15.391C21.5384 15.1956 22.1923 14.0718 22.1923 14.0718L18.1153 2.78516L18.0769 2.88288Z" fill="#59B24F"/>
<path d="M21.6853 14.6013C22.9998 13.9821 23.293 10.8343 22.3402 7.57045C21.3875 4.30666 19.5495 2.16282 18.235 2.78207C16.9206 3.40132 16.6273 6.54915 17.5801 9.81295C18.5329 13.0767 20.3708 15.2206 21.6853 14.6013Z" fill="#84D17D"/>
<path d="M21.6922 14.1205C20.7307 14.7557 19.0383 12.9968 18.0768 10.0652C17.1153 7.13357 17.2691 3.85995 18.2307 3.22477C19.1922 2.58959 21.0383 4.49513 21.9999 7.42673C22.9614 10.3583 22.6537 13.4854 21.6922 14.1205Z" fill="#B0EDA9"/>
<path d="M19.1538 5.17908C19.1923 5.0325 19.1923 4.88592 19.3077 4.7882C19.4615 4.69048 19.6154 4.88592 19.6923 5.08136C19.8461 5.47224 19.9615 5.91198 20 6.40058C20.0769 6.20514 20.1538 6.0097 20.2692 5.86312C20.3077 5.81426 20.3077 5.81426 20.3461 5.7654C20.423 5.7654 20.4615 5.86312 20.4615 6.0097C20.5 6.54716 20.4615 7.08462 20.3461 7.67094C20.423 7.4755 20.5384 7.28006 20.6923 7.18234C20.8461 7.08462 21.0384 7.03576 21.1923 7.18234C21.3846 7.32892 21.3846 7.7198 21.3077 8.01295C21.2307 8.30611 21.0384 8.50155 20.8846 8.69699C21.2307 8.89243 21.5384 9.28331 21.6538 9.77191C21.6923 9.86963 21.6923 10.0162 21.6538 10.1139C21.5769 10.2605 21.3846 10.2117 21.2692 10.1139C21.5769 10.5537 21.6923 11.2866 21.5384 11.8729C21.5384 11.9706 21.5 12.0195 21.423 12.0683C21.3846 12.0683 21.3461 12.0683 21.3077 12.0683C21.0384 12.0195 20.8461 11.7752 20.6923 11.5309C20.5384 11.2377 20.423 10.9446 20.3461 10.6025C20.3846 10.9446 20.3461 11.3354 20.3077 11.6774C20.3077 11.7263 20.3077 11.7752 20.2692 11.824C20.2307 11.824 20.2307 11.824 20.1923 11.824C19.8846 11.7752 19.6538 11.3843 19.5769 10.9446C19.5384 10.5048 19.6154 10.0651 19.6923 9.62533C19.6154 9.86963 19.4615 10.1139 19.2692 10.2117C19.0769 10.3094 18.8461 10.1628 18.8077 9.91849C18.8077 9.82077 18.8077 9.67419 18.8461 9.57647C18.9615 9.23445 19.0769 8.89243 19.2692 8.64813C18.9615 8.84357 18.5769 8.64813 18.423 8.25725C18.3846 8.15953 18.3461 8.01296 18.3846 7.91524C18.423 7.76866 18.5384 7.7198 18.6538 7.7198C18.7692 7.7198 18.8461 7.76866 18.9615 7.81752C18.7307 7.62208 18.4615 7.32892 18.5 6.93804C18.5 6.84032 18.5769 6.69374 18.6538 6.69374C18.6923 6.69374 18.7692 6.69374 18.8077 6.7426C18.923 6.84032 19.1538 7.13348 19.2692 7.13348C19.1538 6.44944 19.0384 5.86312 19.1538 5.17908Z" fill="#C1FFB8"/>
<path d="M11.8845 16.5149C11.8845 16.5149 12.1538 21.3032 16.9999 20.4237C21.8845 19.5443 20.9614 14.5605 20.9614 14.5605L11.8845 16.5149Z" fill="#E24C24"/>
<path d="M16.7028 17.8567C19.2 17.359 21.0989 15.9398 20.9441 14.6869C20.7894 13.434 18.6396 12.8218 16.1424 13.3195C13.6452 13.8172 11.7463 15.2364 11.901 16.4893C12.0558 17.7423 14.2056 18.3545 16.7028 17.8567Z" fill="#FF5A27"/>
<path d="M16.667 17.5671C18.9544 17.1112 20.6992 15.8556 20.5642 14.7626C20.4292 13.6696 18.4655 13.1532 16.1782 13.6091C13.8909 14.065 12.1461 15.3206 12.281 16.4136C12.416 17.5066 14.3797 18.023 16.667 17.5671Z" fill="#FF8B78"/>
<path d="M14.7308 15.1471C14.5769 15.2937 14.4231 15.4891 14.4615 15.7334C14.4615 15.8311 14.5385 15.9289 14.5385 16.0266C14.5385 16.1243 14.5 16.222 14.5 16.3197C14.5 16.3686 14.5385 16.4663 14.5769 16.5152C14.8462 16.8083 15.2308 16.7106 15.5769 16.6129C16.4615 16.3686 17.3077 16.0754 18.1923 15.8311C18.4231 15.7823 18.6923 15.6357 18.7308 15.3914C18.8077 15.1471 18.6923 14.9028 18.5 14.7562C18.3462 14.6096 18.1539 14.5608 17.9615 14.5608C17.3846 14.4631 16.8077 14.4631 16.2308 14.6096C15.6923 14.6585 15.1923 14.7562 14.7308 15.1471Z" fill="#FF5A27"/>
<path d="M13.1153 16.3197C13.2691 16.2708 13.423 16.2219 13.5768 16.1731C13.6153 16.1731 13.6153 16.1242 13.6537 16.0754C13.6537 16.0265 13.6537 15.9776 13.6537 15.9288C13.6153 15.8311 13.5383 15.8311 13.4999 15.8311C13.4614 15.8311 13.423 15.8799 13.346 15.8799H13.3845C13.2691 15.9288 13.1922 15.9288 13.0768 15.9776C12.9999 15.9776 12.9614 16.0754 12.9614 16.1731C12.9999 16.2708 13.0383 16.3197 13.1153 16.3197Z" fill="#FFB164"/>
<path d="M13.423 15.5866C13.5768 15.5378 13.5383 15.2446 13.3845 15.2446C13.1922 15.2935 13.2306 15.6355 13.423 15.5866Z" fill="#FFB164"/>
<path d="M13.423 15.5866C13.5384 15.5866 13.6153 15.5866 13.7307 15.5378C13.7692 15.5378 13.8076 15.4889 13.8076 15.4889C13.8076 15.4401 13.8461 15.3912 13.8461 15.3912C13.8461 15.3423 13.8076 15.2935 13.8076 15.2935C13.7692 15.2446 13.7307 15.2446 13.7307 15.2446C13.6153 15.2446 13.5384 15.2446 13.423 15.2935C13.3845 15.2935 13.3461 15.3423 13.3461 15.3423C13.3461 15.3912 13.3076 15.4401 13.3076 15.4401C13.3076 15.4889 13.3461 15.5378 13.3461 15.5378C13.3461 15.5866 13.3845 15.5866 13.423 15.5866Z" fill="#FFB164"/>
<path d="M14.1536 14.6584C14.1536 14.7072 14.1921 14.7072 14.1921 14.7561C14.1921 14.8049 14.2305 14.8049 14.269 14.8049C14.3074 14.8538 14.3844 14.8538 14.4228 14.9027H14.4613C14.4613 14.9027 14.4998 14.9027 14.4998 14.8538L14.5382 14.8049V14.7561V14.7072C14.5382 14.6584 14.5382 14.6584 14.4998 14.6095C14.4613 14.5606 14.4613 14.5606 14.4228 14.5606C14.4228 14.5606 14.4228 14.5606 14.3844 14.5606H14.4228C14.4228 14.5606 14.3844 14.5606 14.3844 14.5118C14.3844 14.5118 14.3844 14.5118 14.4228 14.5118L14.3844 14.4629C14.3844 14.4629 14.3844 14.4629 14.4228 14.5118L14.3844 14.4629C14.3844 14.4629 14.3844 14.4629 14.3844 14.5118C14.3844 14.5118 14.3844 14.4629 14.3459 14.4629L14.3074 14.4141H14.269H14.2305C14.1921 14.4141 14.1921 14.4629 14.1536 14.5118C14.1151 14.5606 14.1151 14.6095 14.1536 14.6584Z" fill="#FFB164"/>
<path d="M14.9614 14.3161C14.9614 14.3649 14.9999 14.4138 14.9999 14.5115C14.9999 14.5115 14.9999 14.5604 15.0383 14.5604L15.0768 14.6092H15.1153H15.1537C15.1922 14.6092 15.1922 14.5604 15.2307 14.5115V14.4627C15.2307 14.4138 15.2307 14.4138 15.2307 14.3649C15.2307 14.3161 15.1922 14.2672 15.1922 14.1695C15.1922 14.1695 15.1922 14.1206 15.1537 14.1206L15.1153 14.0718H15.0768H15.0383C14.9999 14.0718 14.9999 14.1206 14.9614 14.1695V14.2184C14.9614 14.2672 14.9614 14.2672 14.9614 14.3161Z" fill="#FFB164"/>
<path d="M16.6922 14.1697C16.7307 14.1208 16.7691 14.072 16.8076 13.9742C16.8076 13.9742 16.8076 13.9254 16.846 13.9254V13.8765V13.8277C16.846 13.8277 16.846 13.7788 16.8076 13.7788C16.8076 13.7788 16.8076 13.7788 16.7691 13.7788C16.7307 13.7788 16.7307 13.7788 16.6922 13.7788H16.6537C16.6153 13.7788 16.6153 13.8277 16.6153 13.8277C16.5768 13.8765 16.5383 13.9254 16.4999 14.0231C16.4999 14.0231 16.4999 14.072 16.4614 14.072V14.1208V14.1697C16.4614 14.1697 16.4614 14.2185 16.4999 14.2185C16.4999 14.2185 16.4999 14.2185 16.5383 14.2185C16.5768 14.2185 16.5768 14.2185 16.6153 14.2185H16.6537L16.6922 14.1697Z" fill="#FFB164"/>
<path d="M17.8844 14.1698C17.9614 14.1209 18.0383 14.072 18.1152 14.0232C18.1537 14.0232 18.1537 13.9743 18.1921 13.9255C18.1921 13.8766 18.1921 13.8277 18.1921 13.7789C18.1921 13.73 18.1537 13.73 18.1152 13.6812C18.0768 13.6812 18.0383 13.6812 17.9998 13.6812C17.9229 13.73 17.846 13.7789 17.7691 13.8277C17.7306 13.8277 17.7306 13.8766 17.6921 13.9255C17.6921 13.9743 17.6921 14.0232 17.6921 14.072C17.6921 14.1209 17.7306 14.1209 17.7691 14.1698C17.8075 14.1698 17.846 14.1698 17.8844 14.1698Z" fill="#FFB164"/>
<path d="M18.8075 14.4139C18.9614 14.4139 19.0768 14.365 19.1922 14.3161C19.2306 14.3161 19.2306 14.2673 19.2691 14.2184C19.2691 14.1696 19.2691 14.1207 19.2691 14.0718C19.2691 14.023 19.2306 14.023 19.1922 13.9741C19.1537 13.9741 19.1152 13.9741 19.0768 13.9741C19.0383 13.9741 19.0383 13.9741 18.9998 14.023H19.0383C18.9614 14.0718 18.846 14.0718 18.7306 14.0718C18.6537 14.0718 18.6152 14.1696 18.6152 14.2673C18.6537 14.4139 18.7306 14.4627 18.8075 14.4139Z" fill="#FFB164"/>
<path d="M19.3844 15.0979C19.4998 15.0979 19.6537 15.0979 19.769 15.1467C19.8075 15.1467 19.846 15.1467 19.846 15.0979C19.8844 15.049 19.8844 15.049 19.8844 15.0002C19.8844 14.9024 19.846 14.8047 19.769 14.8047C19.6537 14.8047 19.4998 14.8047 19.3844 14.7559C19.346 14.7559 19.3075 14.7559 19.3075 14.8047C19.269 14.8536 19.269 14.8536 19.269 14.9024C19.269 15.0002 19.3075 15.0979 19.3844 15.0979Z" fill="#FFB164"/>
<path d="M18.8847 15.7331C18.9616 15.7819 19.0385 15.8308 19.1154 15.8796C19.1154 15.8796 19.1539 15.8796 19.1539 15.9285H19.1923C19.2308 15.9285 19.2693 15.8796 19.2693 15.8796C19.2693 15.8308 19.3077 15.7819 19.3077 15.7819C19.3077 15.7331 19.2693 15.6842 19.2693 15.6842C19.1923 15.6353 19.1154 15.5865 19.0385 15.5376C19.0385 15.5376 19 15.5376 19 15.4888H18.9616C18.9231 15.4888 18.8847 15.5376 18.8847 15.5376C18.8847 15.5865 18.8462 15.6353 18.8462 15.6353C18.8462 15.6842 18.8462 15.7331 18.8847 15.7331Z" fill="#FFB164"/>
<path d="M18.0385 16.4171L18.0769 16.466C18.0385 16.466 18.0385 16.466 18.0385 16.4171C18.0769 16.466 18.0769 16.5148 18.0769 16.5148V16.466C18.0769 16.466 18.0769 16.466 18.0769 16.5148V16.5637C18.0769 16.5637 18.0769 16.6126 18.1154 16.6126C18.1154 16.6126 18.1538 16.6126 18.1538 16.6614H18.1923C18.2308 16.6614 18.2692 16.6126 18.2692 16.6126C18.2692 16.5637 18.3077 16.5148 18.3077 16.5148C18.3077 16.466 18.3077 16.4171 18.2692 16.3683C18.2692 16.3194 18.2308 16.2705 18.1923 16.2705C18.1538 16.2217 18.1538 16.2217 18.1154 16.2217H18.0769C18.0769 16.2217 18.0385 16.2217 18.0385 16.2705C18 16.3194 18 16.3194 18 16.3683V16.4171C18 16.3683 18 16.4171 18.0385 16.4171Z" fill="#FFB164"/>
<path d="M16.6923 16.9059C16.6923 16.9547 16.7307 16.9547 16.7307 17.0036V16.9547C16.7307 17.0036 16.7307 17.0525 16.7307 17.1013V17.1502C16.7307 17.1502 16.7307 17.199 16.7692 17.199C16.8077 17.199 16.8461 17.2479 16.8461 17.2479C16.8846 17.2479 16.923 17.199 16.923 17.199C16.923 17.199 16.923 17.199 16.923 17.1502C16.923 17.1013 16.923 17.1013 16.923 17.0525C16.923 17.0036 16.923 16.9547 16.923 16.9547C16.923 16.9059 16.8846 16.857 16.8846 16.8082C16.8846 16.7593 16.8461 16.7593 16.8077 16.7104H16.7692H16.7307C16.6923 16.7104 16.6923 16.7593 16.6538 16.8082C16.6923 16.8082 16.6923 16.857 16.6923 16.9059Z" fill="#FFB164"/>
<path d="M15.6922 17.0524V17.1012C15.6922 17.1012 15.6922 17.1012 15.6922 17.0524C15.6922 17.1012 15.6922 17.1012 15.6922 17.1501C15.6922 17.1501 15.6922 17.1501 15.6922 17.0524C15.6922 17.1012 15.6922 17.1501 15.6922 17.1501C15.6922 17.1501 15.6922 17.1501 15.6922 17.1012C15.6922 17.1012 15.6922 17.1501 15.6537 17.1501C15.6537 17.1501 15.6537 17.199 15.6152 17.199V17.2478C15.6152 17.2967 15.6537 17.3455 15.6537 17.3455C15.6922 17.3455 15.7306 17.3944 15.7306 17.3944H15.7691C15.8075 17.3944 15.8075 17.3455 15.8075 17.3455C15.846 17.2967 15.846 17.2967 15.846 17.2478C15.846 17.2478 15.846 17.199 15.8845 17.199C15.8845 17.1501 15.8845 17.1501 15.8845 17.1012C15.8845 17.0524 15.8845 17.0035 15.8845 17.0035C15.8845 16.9547 15.846 16.9058 15.846 16.9058C15.8075 16.9058 15.7691 16.8569 15.7691 16.8569C15.7306 16.8569 15.6922 16.9058 15.6922 16.9058C15.6922 17.0035 15.6922 17.0524 15.6922 17.0524Z" fill="#FFB164"/>
<path d="M14.5767 16.7594C14.5383 16.8082 14.5383 16.8571 14.4998 16.906C14.4998 16.906 14.4998 16.906 14.5383 16.8571C14.4998 16.906 14.4229 16.9548 14.3844 17.0037C14.3459 17.0037 14.3459 17.0525 14.3459 17.1014C14.3459 17.1503 14.3459 17.1991 14.3844 17.1991C14.4229 17.248 14.4229 17.248 14.4613 17.248H14.4998C14.5383 17.248 14.5383 17.248 14.5767 17.1991C14.6921 17.1014 14.769 17.0037 14.8459 16.8571C14.8459 16.8082 14.8844 16.7594 14.8844 16.7594C14.8844 16.7105 14.8459 16.6617 14.8459 16.6617C14.8075 16.6617 14.769 16.6128 14.769 16.6128C14.6536 16.7105 14.6152 16.7105 14.5767 16.7594Z" fill="#FFB164"/>
<path d="M13.5001 17.0036C13.5385 16.9547 13.5385 16.9059 13.577 16.9059C13.577 16.9059 13.577 16.857 13.6154 16.857V16.8082V16.7593C13.6154 16.7593 13.6154 16.7104 13.577 16.7104C13.577 16.7104 13.577 16.7104 13.5385 16.7104C13.5001 16.7104 13.5001 16.7104 13.4616 16.7104H13.4231C13.3847 16.7104 13.3847 16.7593 13.3847 16.7593C13.3462 16.8082 13.3462 16.857 13.3077 16.857C13.3077 16.857 13.3077 16.9059 13.2693 16.9059V16.9547V17.0036C13.2693 17.0036 13.2693 17.0525 13.3077 17.0525C13.3077 17.0525 13.3077 17.0525 13.3462 17.0525C13.3847 17.0525 13.3847 17.0525 13.4231 17.0525H13.4616C13.4616 17.0525 13.4616 17.0525 13.5001 17.0036Z" fill="#FFB164"/>
<path opacity="0.24" d="M13.9228 19.5931C14.192 19.7397 14.4997 19.9352 14.8074 19.8863C14.9228 19.8863 15.0382 19.7886 15.0382 19.642C15.0382 19.5443 14.9228 19.4466 14.8459 19.3977C14.6536 19.3 14.4613 19.2023 14.3459 19.0068C14.1151 18.7137 13.6536 17.9319 13.192 18.2739C12.769 18.6648 13.692 19.4466 13.9228 19.5931Z" fill="white"/>
<path d="M22.1541 13.0946C22.1541 13.0946 24.5002 16.808 28.1156 12.606C31.731 8.40408 28.7694 4.98389 28.7694 4.98389L22.1541 13.0946Z" fill="#E24C24"/>
<path d="M26.7302 10.7475C28.5672 8.54139 29.5003 6.00587 28.8144 5.08421C28.1285 4.16256 26.0834 5.20378 24.2465 7.40985C22.4095 9.61592 21.4764 12.1514 22.1623 13.0731C22.8482 13.9948 24.8933 12.9535 26.7302 10.7475Z" fill="#FF5A27"/>
<path d="M26.5716 10.5345C28.2542 8.51381 29.1332 6.22395 28.5348 5.41995C27.9365 4.61595 26.0875 5.60227 24.4049 7.62296C22.7224 9.64365 21.8434 11.9335 22.4417 12.7375C23.0401 13.5415 24.8891 12.5552 26.5716 10.5345Z" fill="#FF8B78"/>
<path d="M23.8847 9.96737C23.8078 10.1628 23.7693 10.456 23.9232 10.6514C23.9616 10.7003 24.0385 10.7491 24.1155 10.8468C24.1539 10.9446 24.1539 11.0423 24.1924 11.0911C24.2308 11.14 24.2693 11.1889 24.3462 11.1889C24.6924 11.2377 24.9616 10.8957 25.1924 10.5537C25.8078 9.72307 26.3847 8.89245 27.0001 8.01297C27.1539 7.81753 27.3078 7.52437 27.2693 7.23121C27.2309 6.98691 27.0001 6.84033 26.8078 6.84033C26.6155 6.84033 26.4232 6.93805 26.2693 7.08463C25.7693 7.42665 25.2693 7.81753 24.8462 8.35499C24.4616 8.89245 24.1155 9.33219 23.8847 9.96737Z" fill="#FF5A27"/>
<path d="M23.0769 12.0685C23.1923 11.922 23.3076 11.7754 23.3846 11.5799C23.3846 11.5311 23.423 11.4822 23.3846 11.4822C23.3846 11.4334 23.3461 11.3845 23.3076 11.3845C23.2307 11.3356 23.1923 11.3845 23.1153 11.4334C23.0769 11.4822 23.0384 11.5311 23.0384 11.5799C23.0384 11.5799 23.0384 11.5799 23.0769 11.5311C22.9999 11.6288 22.9615 11.7265 22.8846 11.8242C22.8461 11.8731 22.8461 11.9708 22.8846 12.0685C22.923 12.1174 23.0384 12.1174 23.0769 12.0685Z" fill="#FFB164"/>
<path d="M23.0001 11.2866C23.1155 11.14 22.9616 10.8957 22.8078 11.0423C22.6924 11.1888 22.8847 11.4331 23.0001 11.2866Z" fill="#FFB164"/>
<path d="M22.9999 11.2865C23.0768 11.1887 23.1538 11.1399 23.2307 11.0422C23.2692 10.9933 23.2692 10.9444 23.2692 10.9444C23.2692 10.8956 23.2692 10.8467 23.2307 10.8467C23.1922 10.7979 23.1922 10.7979 23.1538 10.7979C23.1153 10.7979 23.0768 10.7979 23.0768 10.8467C22.9999 10.9444 22.923 10.9933 22.8461 11.091C22.8076 11.1399 22.8076 11.1887 22.8076 11.1887C22.8076 11.2376 22.8076 11.2865 22.8461 11.2865C22.8845 11.3353 22.8845 11.3353 22.923 11.3353C22.923 11.3353 22.9615 11.2865 22.9999 11.2865Z" fill="#FFB164"/>
<path d="M23.1924 9.96748C23.2308 9.96748 23.2308 10.0163 23.2693 10.0163C23.3077 10.0163 23.3077 10.0163 23.3462 10.0163C23.3847 10.0163 23.4616 10.0163 23.5001 9.96748C23.5001 9.96748 23.5385 9.96748 23.5385 9.91862L23.577 9.86976V9.8209V9.77204C23.577 9.77204 23.577 9.77204 23.5385 9.72318L23.5001 9.67432C23.4616 9.67432 23.4231 9.67432 23.4231 9.67432C23.4231 9.67432 23.4231 9.67432 23.3847 9.67432H23.4231H23.3847H23.4231H23.3847H23.4231H23.3847H23.4231H23.3847H23.3462C23.3462 9.67432 23.3077 9.67432 23.3077 9.72318L23.2693 9.77204C23.2693 9.8209 23.2308 9.86976 23.2693 9.86976C23.1154 9.91862 23.1539 9.96748 23.1924 9.96748Z" fill="#FFB164"/>
<path d="M23.6923 9.08808C23.7307 9.13694 23.7692 9.1858 23.8077 9.1858H23.8461H23.8846C23.8846 9.1858 23.923 9.1858 23.923 9.13694L23.9615 9.08808C23.9615 9.03922 24 8.99036 23.9615 8.99036V8.9415C23.9615 8.89264 23.923 8.89264 23.923 8.89264C23.8846 8.84378 23.8461 8.79492 23.8077 8.79492H23.7692H23.7307C23.7307 8.79492 23.6923 8.79492 23.6923 8.84378L23.6538 8.89264C23.6538 8.9415 23.6154 8.99036 23.6538 8.99036V9.03922C23.6923 9.03922 23.6923 9.08808 23.6923 9.08808Z" fill="#FFB164"/>
<path d="M25.0768 7.71998C25.0768 7.62226 25.0768 7.5734 25.0768 7.47568V7.42682C25.0768 7.42682 25.0768 7.37796 25.0384 7.37796L24.9999 7.3291H24.9615H24.923C24.8845 7.3291 24.8845 7.3291 24.8461 7.37796C24.8461 7.37796 24.8461 7.37796 24.8076 7.42682C24.8076 7.47568 24.8076 7.47568 24.8076 7.52454C24.8076 7.62226 24.8076 7.67112 24.8076 7.76884V7.8177C24.8076 7.8177 24.8076 7.86656 24.8461 7.86656L24.8845 7.91542H24.923H24.9615C24.9999 7.91542 24.9999 7.91542 25.0384 7.86656C25.0384 7.86656 25.0384 7.86656 25.0768 7.8177C25.0768 7.8177 25.0768 7.76884 25.0768 7.71998Z" fill="#FFB164"/>
<path d="M26.0386 6.88922C26.0771 6.7915 26.1156 6.69378 26.154 6.59606C26.154 6.5472 26.1925 6.49834 26.154 6.49834C26.154 6.44948 26.1156 6.40062 26.0771 6.40062C26.0386 6.40062 26.0002 6.35176 26.0002 6.40062C25.9617 6.40062 25.9232 6.44948 25.9232 6.49834C25.8848 6.59606 25.8463 6.69378 25.8079 6.7915C25.8079 6.84036 25.7694 6.88922 25.8079 6.88922C25.8079 6.93808 25.8463 6.98694 25.8848 6.98694C25.9232 6.98694 25.9617 7.0358 25.9617 6.98694C26.0002 6.93808 26.0386 6.93808 26.0386 6.88922Z" fill="#FFB164"/>
<path d="M26.9232 6.44934C27.0386 6.35162 27.1155 6.20504 27.1924 6.05846C27.1924 6.0096 27.2309 5.96074 27.1924 5.96074C27.1924 5.91188 27.1539 5.86302 27.1155 5.86302C27.077 5.86302 27.0386 5.81416 27.0386 5.86302C27.0001 5.86302 26.9616 5.91188 26.9616 5.96074C26.9616 6.0096 26.9232 6.0096 26.9232 6.05846C26.9232 6.05846 26.9232 6.05846 26.9616 6.0096C26.8847 6.10732 26.8462 6.20504 26.7693 6.2539C26.7309 6.30276 26.7309 6.44934 26.7693 6.4982C26.8078 6.4982 26.8462 6.4982 26.9232 6.44934Z" fill="#FFB164"/>
<path d="M27.6924 6.54741C27.8078 6.44969 27.9232 6.40083 28.0001 6.30311C28.0386 6.30311 28.0386 6.25425 28.077 6.20539C28.077 6.15653 28.077 6.10767 28.077 6.10767C28.0386 6.05881 27.9616 6.00995 27.9232 6.05881C27.8078 6.15653 27.6924 6.20539 27.6155 6.30311C27.577 6.30311 27.577 6.35197 27.5386 6.40083C27.5386 6.44969 27.5386 6.49855 27.5386 6.49855C27.5386 6.54741 27.654 6.59627 27.6924 6.54741Z" fill="#FFB164"/>
<path d="M27.5771 7.47578C27.654 7.47578 27.7694 7.47578 27.8463 7.47578H27.8847C27.8847 7.47578 27.9232 7.47578 27.9232 7.42692C27.9617 7.37806 27.9617 7.37806 27.9617 7.3292C27.9617 7.28034 27.9617 7.23148 27.9232 7.23148C27.8847 7.18262 27.8847 7.18262 27.8463 7.18262C27.7694 7.18262 27.654 7.18262 27.5771 7.18262H27.5386C27.5386 7.18262 27.5001 7.18262 27.5001 7.23148C27.4617 7.28034 27.4617 7.28034 27.4617 7.3292C27.4617 7.37806 27.4617 7.42692 27.5001 7.42692C27.5001 7.42692 27.5386 7.47578 27.5771 7.47578Z" fill="#FFB164"/>
<path d="M27.1924 8.64817H27.2309H27.1924C27.2309 8.64817 27.2693 8.69703 27.2693 8.69703C27.2693 8.69703 27.2693 8.69703 27.2309 8.64817L27.2693 8.69703H27.3078H27.3463C27.3463 8.69703 27.3847 8.69703 27.3847 8.64817C27.4232 8.59931 27.4232 8.59931 27.4232 8.55045C27.4232 8.50159 27.4232 8.45273 27.3847 8.45273C27.3463 8.40387 27.3463 8.40387 27.3078 8.35501C27.2693 8.35501 27.2309 8.30615 27.1924 8.30615C27.154 8.30615 27.1155 8.30615 27.1155 8.30615C27.1155 8.30615 27.077 8.30615 27.077 8.35501L27.0386 8.40387C27.0386 8.45273 27.0386 8.50159 27.0386 8.50159C27.0386 8.50159 27.0386 8.50159 27.077 8.55045C27.1155 8.59931 27.154 8.64817 27.1924 8.64817Z" fill="#FFB164"/>
<path d="M26.3076 10.0166C26.3461 10.0166 26.3461 10.0654 26.3846 10.0654C26.3846 10.0654 26.3846 10.0654 26.3461 10.0166C26.3846 10.0654 26.3846 10.0654 26.423 10.1143L26.4615 10.1631H26.5C26.5384 10.1631 26.5769 10.1631 26.5769 10.1143C26.6153 10.0654 26.6153 10.0654 26.6153 10.0166V9.96771C26.6153 9.91885 26.6153 9.91885 26.5769 9.86999C26.5384 9.82113 26.5384 9.82113 26.5 9.77227C26.4615 9.72341 26.423 9.72341 26.3846 9.67455C26.3461 9.67455 26.3076 9.62569 26.3076 9.67455C26.3076 9.67455 26.2692 9.67455 26.2692 9.72341L26.2307 9.77227C26.2307 9.82113 26.1923 9.86999 26.2307 9.86999C26.2307 9.96771 26.2692 9.96771 26.3076 10.0166Z" fill="#FFB164"/>
<path d="M25.5386 10.8469C25.5386 10.8469 25.577 10.8958 25.5386 10.8469C25.577 10.8958 25.577 10.8469 25.5386 10.8469C25.577 10.8958 25.577 10.8958 25.577 10.8958C25.577 10.8958 25.577 10.8958 25.5386 10.8469C25.577 10.8958 25.577 10.9446 25.577 10.9446V10.8958V10.9446V10.9935C25.577 10.9935 25.577 11.0423 25.6155 11.0423C25.654 11.0912 25.654 11.0912 25.6924 11.0912C25.7309 11.0912 25.7693 11.0912 25.7693 11.0423C25.7693 11.0423 25.7693 11.0423 25.8078 10.9935C25.8078 10.9446 25.8078 10.9446 25.8078 10.8958C25.8078 10.8469 25.8078 10.8469 25.8078 10.798V10.7492C25.8078 10.7003 25.8078 10.7003 25.7693 10.6515C25.7693 10.6026 25.7309 10.6026 25.7309 10.5537C25.6924 10.5049 25.6924 10.5049 25.654 10.5049C25.6155 10.5049 25.577 10.5049 25.577 10.5537C25.5386 10.6026 25.5386 10.6026 25.5386 10.6515C25.5001 10.798 25.5386 10.798 25.5386 10.8469Z" fill="#FFB164"/>
<path d="M24.5001 11.3844C24.5001 11.4332 24.5001 11.4821 24.5001 11.5798V11.531C24.5001 11.6287 24.4617 11.6775 24.4617 11.7753C24.4617 11.8241 24.4617 11.873 24.4617 11.873C24.4617 11.9218 24.5001 11.9218 24.5386 11.9707C24.5771 11.9707 24.6155 11.9707 24.6155 11.9707C24.6155 11.9707 24.6155 11.9707 24.654 11.9218L24.6924 11.873C24.7309 11.7264 24.7694 11.5798 24.7694 11.4332C24.7694 11.3844 24.7694 11.3355 24.7309 11.3355C24.6924 11.2378 24.654 11.2378 24.6155 11.2378C24.5771 11.2378 24.5386 11.2378 24.5386 11.2867C24.5001 11.2867 24.5001 11.3355 24.5001 11.3844Z" fill="#FFB164"/>
<path d="M23.6923 12.4103C23.6923 12.3615 23.6923 12.3126 23.6923 12.2638V12.2149C23.6923 12.2149 23.6923 12.166 23.6539 12.166L23.6154 12.1172H23.5769H23.5385C23.5 12.1172 23.5 12.1172 23.4616 12.166C23.4616 12.166 23.4616 12.166 23.4231 12.2149C23.4231 12.2638 23.4231 12.2638 23.4231 12.3126C23.4231 12.3615 23.4231 12.4103 23.4231 12.4592V12.5081C23.4231 12.5081 23.4231 12.5569 23.4616 12.5569L23.5 12.6058H23.5385H23.5769C23.6154 12.6058 23.6154 12.6058 23.6539 12.5569C23.6539 12.5569 23.6539 12.5569 23.6923 12.5081C23.6923 12.4592 23.6923 12.4103 23.6923 12.4103Z" fill="#FFB164"/>
<path opacity="0.24" d="M25.1922 14.1693C25.4999 14.1205 25.8076 14.0228 26.0769 13.7785C26.1538 13.6807 26.2307 13.5342 26.1923 13.3876C26.1538 13.2899 26.0384 13.2899 25.923 13.3387C25.7307 13.3876 25.5384 13.4364 25.3076 13.3876C24.9615 13.3387 24.2307 12.9967 24.0384 13.6319C23.8076 14.2671 24.9615 14.2182 25.1922 14.1693Z" fill="white"/>
<path d="M26.5769 18.5673C26.5769 18.5673 27.6538 23.1601 32.2692 20.9615C36.8846 18.7628 35.0769 14.1699 35.0769 14.1699L26.5769 18.5673Z" fill="#E24C24"/>
<path d="M31.5063 18.5578C33.8594 17.3851 35.4714 15.4773 35.1068 14.2967C34.7422 13.1161 32.539 13.1097 30.1859 14.2824C27.8329 15.4551 26.2209 17.3629 26.5855 18.5435C26.9501 19.7241 29.1532 19.7306 31.5063 18.5578Z" fill="#FF5A27"/>
<path d="M31.4221 18.2852C33.5774 17.211 35.0669 15.5053 34.7488 14.4754C34.4307 13.4455 32.4256 13.4814 30.2703 14.5555C28.1149 15.6297 26.6255 17.3354 26.9436 18.3653C27.2616 19.3952 29.2667 19.3594 31.4221 18.2852Z" fill="#FF8B78"/>
<path d="M29.1154 16.4662C29 16.6127 28.8461 16.857 28.923 17.1013C28.9615 17.1991 29 17.2479 29.0384 17.3456C29.0384 17.4434 29 17.5411 29.0384 17.6388C29.0384 17.6877 29.1154 17.7365 29.1538 17.7854C29.4615 17.9808 29.8077 17.8342 30.1538 17.6388C30.9615 17.1502 31.7692 16.6616 32.5769 16.173C32.7692 16.0264 33.0384 15.8798 33.0384 15.5867C33.0384 15.3424 32.9231 15.0981 32.7307 15.0492C32.5384 14.9515 32.3461 14.9515 32.1538 15.0004C31.5769 15.0981 31 15.1958 30.4615 15.5378C29.9615 15.7333 29.5 15.9776 29.1154 16.4662Z" fill="#FF5A27"/>
<path d="M27.7308 18.0295C27.8847 17.9318 28.0385 17.8341 28.1539 17.7364C28.1924 17.7364 28.1924 17.6875 28.1924 17.6387C28.1924 17.5898 28.1924 17.5409 28.1539 17.4921C28.1155 17.3944 28.0385 17.3944 27.9616 17.4432C27.9231 17.4921 27.8847 17.4921 27.8462 17.5409H27.8847C27.8078 17.5898 27.6924 17.6875 27.6155 17.7364C27.5385 17.7852 27.5001 17.883 27.5385 17.9318C27.6154 18.0295 27.6924 18.0784 27.7308 18.0295Z" fill="#FFB164"/>
<path d="M27.8847 17.2479C28.0385 17.1502 27.9616 16.857 27.8077 16.9547C27.6539 17.0036 27.7308 17.3456 27.8847 17.2479Z" fill="#FFB164"/>
<path d="M27.8847 17.2474C27.9616 17.1985 28.077 17.1985 28.1539 17.1496C28.1924 17.1496 28.2308 17.1008 28.2308 17.0519C28.2308 17.0031 28.2308 16.9542 28.2308 16.9053C28.2308 16.8565 28.1924 16.8076 28.1539 16.8076C28.1155 16.8076 28.077 16.8076 28.0385 16.8076C27.9616 16.8565 27.8462 16.8565 27.7693 16.9053C27.7308 16.9053 27.6924 16.9542 27.6924 17.0031C27.6924 17.0519 27.6924 17.1008 27.6924 17.1496C27.6924 17.1985 27.7308 17.2474 27.7693 17.2474C27.8462 17.2474 27.8462 17.2474 27.8847 17.2474Z" fill="#FFB164"/>
<path d="M28.4616 16.1242C28.4616 16.173 28.5 16.173 28.5385 16.173C28.5769 16.173 28.5769 16.2219 28.6154 16.2219C28.6539 16.2708 28.7308 16.2708 28.7692 16.2708H28.8077C28.8077 16.2708 28.8462 16.2708 28.8462 16.2219C28.8462 16.2219 28.8462 16.173 28.8846 16.173V16.1242V16.0753C28.8846 16.0265 28.8462 16.0265 28.8462 16.0265C28.8077 15.9776 28.7692 15.9776 28.7692 15.9776C28.7692 15.9776 28.7692 15.9776 28.7308 15.9776H28.7692H28.7308H28.7692C28.7692 15.9776 28.7308 15.9776 28.7308 15.9287C28.7308 15.9287 28.7308 15.9287 28.7692 15.9287L28.7308 15.8799C28.7308 15.8799 28.7308 15.8799 28.7692 15.9287L28.7308 15.8799H28.6923H28.6539C28.6539 15.8799 28.6154 15.8799 28.6154 15.9287C28.5769 15.9776 28.5769 15.9776 28.5769 16.0265C28.4231 16.0753 28.4231 16.1242 28.4616 16.1242Z" fill="#FFB164"/>
<path d="M29.1923 15.5866C29.2307 15.6355 29.2307 15.6843 29.2692 15.7332L29.3077 15.7821H29.3461H29.3846C29.3846 15.7821 29.423 15.7821 29.423 15.7332C29.4615 15.6843 29.4615 15.6843 29.4615 15.6355V15.5866C29.4615 15.5378 29.4615 15.5378 29.423 15.4889C29.3846 15.44 29.3846 15.3912 29.3461 15.3423L29.3077 15.2935H29.2692H29.2307C29.2307 15.2935 29.1923 15.2935 29.1923 15.3423C29.1538 15.3912 29.1538 15.3912 29.1538 15.44V15.4889C29.1923 15.5378 29.1923 15.5378 29.1923 15.5866Z" fill="#FFB164"/>
<path d="M30.8845 14.9514C30.9229 14.9026 30.9229 14.8048 30.9614 14.756V14.7071V14.6583C30.9614 14.6583 30.9614 14.6094 30.9229 14.6094L30.8845 14.5605H30.846C30.8075 14.5605 30.8075 14.5605 30.7691 14.5605H30.7306L30.6922 14.6094C30.6537 14.6583 30.6537 14.756 30.6152 14.8048V14.8537V14.9026C30.6152 14.9026 30.6152 14.9514 30.6537 14.9514L30.6922 15.0003H30.7306C30.7691 15.0003 30.7691 15.0003 30.8075 15.0003H30.846C30.846 15.0003 30.846 15.0003 30.8845 14.9514Z" fill="#FFB164"/>
<path d="M31.9998 14.6092C32.0767 14.5603 32.1537 14.4626 32.1921 14.4138C32.2306 14.3649 32.2306 14.3649 32.2306 14.316C32.2306 14.2672 32.2306 14.2183 32.1921 14.1695C32.1537 14.1206 32.1537 14.1206 32.1152 14.1206C32.0767 14.1206 32.0383 14.1206 31.9998 14.1695C31.9229 14.2183 31.846 14.316 31.8075 14.3649C31.769 14.4138 31.769 14.4138 31.769 14.4626C31.769 14.5115 31.769 14.5603 31.8075 14.6092C31.846 14.6581 31.846 14.6581 31.8844 14.6581C31.9614 14.6581 31.9998 14.6581 31.9998 14.6092Z" fill="#FFB164"/>
<path d="M32.9615 14.6585C33.0769 14.6097 33.2308 14.5119 33.3462 14.4631C33.3846 14.4631 33.3846 14.4142 33.3846 14.3654C33.3846 14.3165 33.3846 14.2676 33.3462 14.2188C33.3077 14.1699 33.3077 14.1699 33.2692 14.1699C33.2308 14.1699 33.1923 14.1699 33.1539 14.2188C33.1154 14.2188 33.1154 14.2676 33.0769 14.2676H33.1154C33.0385 14.3165 32.9231 14.3654 32.8462 14.4142C32.7692 14.4631 32.7308 14.5608 32.7692 14.6097C32.8077 14.6097 32.8846 14.6585 32.9615 14.6585Z" fill="#FFB164"/>
<path d="M33.6538 15.0979C33.7692 15.0491 33.9231 15.0491 34.0385 15.0002C34.0769 15.0002 34.1154 14.9513 34.1154 14.9513C34.1154 14.9025 34.1539 14.8536 34.1539 14.8536C34.1539 14.7559 34.0769 14.707 34 14.707C33.8846 14.7559 33.7308 14.7559 33.6154 14.8048C33.5769 14.8048 33.5385 14.8536 33.5385 14.8536C33.5385 14.9025 33.5 14.9513 33.5 14.9513C33.5 15.0491 33.5769 15.1468 33.6538 15.0979Z" fill="#FFB164"/>
<path d="M33.2693 15.8796C33.3462 15.9285 33.4231 15.9285 33.5385 15.9773H33.577H33.6155C33.6539 15.9773 33.6924 15.9285 33.6924 15.8796C33.6924 15.8308 33.6924 15.7819 33.6924 15.733C33.6924 15.6842 33.6539 15.6353 33.6155 15.6353C33.5385 15.5865 33.4616 15.5865 33.3462 15.5376H33.3078H33.2693C33.2308 15.5376 33.1924 15.5865 33.1924 15.6353C33.1924 15.6842 33.1924 15.733 33.1924 15.7819C33.2308 15.8308 33.2308 15.8796 33.2693 15.8796Z" fill="#FFB164"/>
<path d="M32.5383 16.8078L32.5768 16.8567C32.5768 16.8078 32.5768 16.8078 32.5383 16.8078C32.5768 16.8567 32.5768 16.8567 32.6153 16.9055V16.8567C32.6153 16.8567 32.6153 16.8567 32.6153 16.9055C32.6153 16.9055 32.6153 16.9544 32.6537 16.9544L32.6922 17.0032H32.7306H32.7691C32.8076 17.0032 32.846 16.9544 32.846 16.9055C32.846 16.8567 32.846 16.8078 32.846 16.7589C32.846 16.7101 32.8076 16.6612 32.8076 16.6612C32.7691 16.6124 32.7691 16.6124 32.7306 16.5635C32.6922 16.5146 32.6537 16.5146 32.6537 16.5146H32.6153C32.6153 16.5146 32.5768 16.5146 32.5768 16.5635C32.5768 16.6124 32.5383 16.6612 32.5383 16.6612V16.7101C32.5383 16.7589 32.5383 16.7589 32.5383 16.8078Z" fill="#FFB164"/>
<path d="M31.3461 17.6389C31.3461 17.6877 31.3845 17.6877 31.3845 17.7366V17.6877C31.3845 17.7366 31.423 17.7854 31.423 17.7854C31.423 17.7854 31.423 17.8343 31.4614 17.8343L31.4999 17.8832C31.5384 17.8832 31.5768 17.8832 31.6153 17.8832C31.6538 17.8832 31.6922 17.8343 31.6922 17.7854V17.7366C31.6922 17.6877 31.6922 17.6877 31.6922 17.6389C31.6922 17.59 31.6538 17.5411 31.6538 17.5411C31.6153 17.4923 31.6153 17.4434 31.5768 17.3946C31.5384 17.3457 31.5384 17.3457 31.4999 17.3457H31.4614C31.4614 17.3457 31.423 17.3457 31.423 17.3946C31.3845 17.4434 31.3845 17.4434 31.3845 17.4923C31.3076 17.5411 31.3076 17.59 31.3461 17.6389Z" fill="#FFB164"/>
<path d="M30.3847 18.0783V18.1271C30.3847 18.0783 30.3847 18.0783 30.3847 18.0783C30.3847 18.1271 30.3847 18.1271 30.3847 18.176C30.4231 18.1271 30.4231 18.1271 30.3847 18.0783C30.3847 18.1271 30.3847 18.176 30.3847 18.176V18.1271C30.3847 18.1271 30.3847 18.176 30.3462 18.176V18.2248V18.2737C30.3462 18.3226 30.3847 18.3714 30.4231 18.3714C30.4616 18.3714 30.5 18.3714 30.5385 18.3714H30.577L30.6154 18.3226C30.6154 18.2737 30.6539 18.2737 30.6539 18.2248V18.176C30.6539 18.1271 30.6539 18.1271 30.6539 18.0783C30.6539 18.0294 30.6539 18.0294 30.6154 17.9805C30.6154 17.9317 30.577 17.9317 30.5385 17.8828C30.5 17.8828 30.4616 17.8828 30.4231 17.8828C30.3847 17.8828 30.3462 17.9317 30.3462 17.9805C30.3847 17.9805 30.3847 18.0294 30.3847 18.0783Z" fill="#FFB164"/>
<path d="M29.2693 18.0782C29.2693 18.1271 29.2309 18.1759 29.1924 18.2248C29.1924 18.2248 29.1924 18.2248 29.1924 18.1759C29.154 18.2737 29.1155 18.3225 29.077 18.3714C29.0386 18.4202 29.0386 18.4691 29.0386 18.4691C29.0386 18.518 29.077 18.5668 29.077 18.5668C29.1155 18.5668 29.154 18.6157 29.154 18.6157H29.1924C29.2309 18.6157 29.2309 18.5668 29.2309 18.5668C29.3078 18.4691 29.3847 18.3225 29.4232 18.1759C29.4232 18.1271 29.4232 18.0782 29.4232 18.0294C29.4232 17.9805 29.3847 17.9316 29.3463 17.9316C29.3078 17.9316 29.2693 17.9316 29.2309 17.9316C29.3078 17.9805 29.2693 18.0294 29.2693 18.0782Z" fill="#FFB164"/>
<path d="M28.2309 18.6155C28.2309 18.5666 28.2694 18.5177 28.2694 18.4689V18.42V18.3712C28.2694 18.3712 28.2694 18.3223 28.2309 18.3223L28.1924 18.2734H28.154C28.1155 18.2734 28.1155 18.2734 28.0771 18.2734H28.0386L28.0001 18.3223C28.0001 18.3712 27.9617 18.42 27.9617 18.4689V18.5177V18.5666C27.9617 18.5666 27.9617 18.6155 28.0001 18.6155L28.0386 18.6643H28.0771C28.1155 18.6643 28.1155 18.6643 28.154 18.6643H28.1924C28.1924 18.6643 28.1924 18.6643 28.2309 18.6155Z" fill="#FFB164"/>
<path opacity="0.24" d="M29.0769 21.0102C29.3846 21.1079 29.6923 21.1567 30 21.059C30.1153 21.0102 30.2307 20.9124 30.1923 20.7659C30.1538 20.6681 30.0769 20.6193 29.9615 20.5704C29.7692 20.5216 29.5769 20.4727 29.3846 20.3261C29.0769 20.0818 28.5 19.4466 28.1153 19.9352C27.7692 20.4238 28.8461 20.9124 29.0769 21.0102Z" fill="white"/>
<path d="M5.65381 10.5537C5.65381 10.5537 2.11535 12.2638 4.15381 17.9316C6.19227 23.5505 9.69227 21.0097 9.69227 21.0097L5.65381 10.5537Z" fill="#E24C24"/>
<path d="M9.60413 21.0296C10.5064 20.4867 10.3609 17.694 9.279 14.7917C8.19711 11.8894 6.5886 9.97675 5.68628 10.5196C4.78396 11.0624 4.92953 13.8552 6.01141 16.7574C7.0933 19.6597 8.70181 21.5724 9.60413 21.0296Z" fill="#FF5A27"/>
<path d="M9.43938 20.5878C10.2265 20.1142 10.0613 17.5753 9.07029 14.917C8.07932 12.2586 6.63789 10.4874 5.85076 10.961C5.06363 11.4345 5.22888 13.9734 6.21984 16.6318C7.21081 19.2901 8.65225 21.0613 9.43938 20.5878Z" fill="#FF8B78"/>
<path d="M7.50005 13.6324C7.3462 13.4858 7.1539 13.3392 7.00005 13.4369C6.92313 13.4858 6.88467 13.5835 6.80774 13.5835C6.73082 13.5835 6.6539 13.5835 6.57697 13.5835C6.53851 13.6324 6.50005 13.6812 6.46159 13.7301C6.30774 14.121 6.50005 14.5607 6.6539 14.9516C7.11544 15.9288 7.53851 16.906 8.00005 17.8832C8.11543 18.1275 8.26928 18.4206 8.50005 18.4206C8.69236 18.4206 8.8462 18.2252 8.92313 17.9809C9.00005 17.7366 8.96159 17.4923 8.92313 17.248C8.80774 16.5151 8.6539 15.7822 8.38467 15.147C8.11543 14.6584 7.88467 14.0721 7.50005 13.6324Z" fill="#FF5A27"/>
<path d="M6.15387 11.9709C6.23079 12.1663 6.30772 12.3129 6.4231 12.5083C6.4231 12.5572 6.46156 12.5572 6.50002 12.5572C6.53849 12.5572 6.57695 12.5572 6.57695 12.5083C6.61541 12.4595 6.61541 12.3617 6.57695 12.264C6.53849 12.2152 6.53849 12.1663 6.50002 12.1174C6.50002 12.1174 6.50002 12.1174 6.50002 12.1663C6.46156 12.0686 6.38464 11.922 6.34618 11.8243C6.30772 11.7266 6.23079 11.7266 6.19233 11.7266C6.15387 11.7754 6.11541 11.8731 6.15387 11.9709Z" fill="#FFB164"/>
<path d="M6.76914 12.1173C6.84607 12.3127 7.07684 12.1662 6.99991 11.9707C6.92299 11.7753 6.69222 11.9218 6.76914 12.1173Z" fill="#FFB164"/>
<path d="M6.76929 12.1173C6.80775 12.2151 6.84621 12.3616 6.88467 12.4594C6.88467 12.5082 6.92313 12.5082 6.96159 12.5571C7.00006 12.5571 7.03852 12.5571 7.07698 12.5571C7.11544 12.5571 7.11544 12.5082 7.1539 12.4594C7.1539 12.4105 7.1539 12.3616 7.1539 12.3128C7.11544 12.2151 7.07698 12.0685 7.03852 11.9708C7.03852 11.9219 7.00006 11.9219 6.96159 11.873C6.92313 11.873 6.88467 11.873 6.84621 11.873C6.80775 11.873 6.80775 11.9219 6.76929 11.9708C6.76929 12.0196 6.76929 12.0685 6.76929 12.1173Z" fill="#FFB164"/>
<path d="M7.69241 12.7529C7.69241 12.7529 7.65394 12.8017 7.65394 12.8506C7.65394 12.8994 7.61548 12.8994 7.61548 12.9483C7.61548 12.9972 7.57702 13.0949 7.61548 13.1437C7.61548 13.1437 7.61548 13.1926 7.65394 13.1926L7.69241 13.2415H7.73087H7.76933H7.80779C7.84625 13.2415 7.84625 13.1926 7.84625 13.1926C7.84625 13.1437 7.88471 13.0949 7.88471 13.0949C7.88471 13.0949 7.88471 13.0949 7.88471 13.046V13.0949V13.046V13.0949V13.046V13.0949C7.88471 13.0949 7.88471 13.046 7.92318 13.046C7.92318 13.046 7.92317 13.046 7.88471 13.0949L7.92318 13.046V12.9972V12.9483C7.92318 12.9483 7.92317 12.8994 7.88471 12.8994C7.84625 12.8506 7.84625 12.8506 7.80779 12.8506C7.76933 12.704 7.73087 12.704 7.69241 12.7529Z" fill="#FFB164"/>
<path d="M8.19218 13.6812C8.15371 13.73 8.11525 13.73 8.07679 13.7789L8.03833 13.8278V13.8766V13.9255C8.03833 13.9255 8.03833 13.9743 8.07679 13.9743C8.11525 14.0232 8.11525 14.0232 8.15371 14.0232H8.19218C8.23064 14.0232 8.23064 14.0232 8.2691 13.9743C8.30756 13.9255 8.34602 13.9255 8.38448 13.8766L8.42294 13.8278V13.7789V13.73C8.42294 13.73 8.42294 13.6812 8.38448 13.6812C8.34602 13.6323 8.34602 13.6323 8.30756 13.6323H8.2691C8.23064 13.6323 8.19218 13.6323 8.19218 13.6812Z" fill="#FFB164"/>
<path d="M8.76917 15.7331C8.80764 15.782 8.88456 15.782 8.92302 15.8309H8.96148H8.99994C8.99994 15.8309 9.03841 15.8309 9.03841 15.782L9.07687 15.7331V15.6843C9.07687 15.6354 9.07687 15.6354 9.07687 15.5866C9.07687 15.5866 9.07687 15.5866 9.07687 15.5377L9.03841 15.4888C8.99994 15.44 8.92302 15.44 8.88456 15.3911H8.8461H8.80764C8.80764 15.3911 8.76917 15.3911 8.76917 15.44L8.73071 15.4888V15.5377C8.73071 15.5866 8.73071 15.5866 8.73071 15.6354C8.73071 15.6354 8.73071 15.6354 8.73071 15.6843C8.73071 15.6843 8.76917 15.7331 8.76917 15.7331Z" fill="#FFB164"/>
<path d="M9.11537 17.1501C9.15383 17.2478 9.23075 17.2966 9.26921 17.3944C9.30767 17.4432 9.30767 17.4432 9.34613 17.4432C9.3846 17.4432 9.42306 17.4432 9.42306 17.3944C9.46152 17.3455 9.46152 17.3455 9.46152 17.2966C9.46152 17.2478 9.46152 17.1989 9.42306 17.1989C9.3846 17.1012 9.30767 17.0523 9.26921 16.9546C9.23075 16.9058 9.23075 16.9058 9.19229 16.9058C9.15383 16.9058 9.11537 16.9058 9.11537 16.9546C9.0769 17.0035 9.0769 17.0035 9.0769 17.0523C9.0769 17.1012 9.11537 17.1501 9.11537 17.1501Z" fill="#FFB164"/>
<path d="M9.19226 18.3713C9.23072 18.5178 9.30764 18.6644 9.38456 18.811C9.38456 18.8599 9.42302 18.8599 9.46149 18.8599C9.49995 18.8599 9.53841 18.8599 9.53841 18.811C9.57687 18.7621 9.57687 18.7621 9.57687 18.7133C9.57687 18.6644 9.57687 18.6156 9.53841 18.6156C9.53841 18.5667 9.49995 18.5667 9.49995 18.5178C9.49995 18.5178 9.49995 18.5178 9.49995 18.5667C9.46149 18.469 9.38456 18.3713 9.38456 18.2247C9.3461 18.127 9.26918 18.127 9.23072 18.127C9.15379 18.1758 9.15379 18.2735 9.19226 18.3713Z" fill="#FFB164"/>
<path d="M8.84619 19.2511C8.88465 19.3977 8.92311 19.5443 8.92311 19.7397C8.92311 19.7886 8.96158 19.8374 8.96158 19.8374C9.00004 19.8374 9.0385 19.8863 9.0385 19.8863C9.11542 19.8863 9.15388 19.7886 9.15388 19.6908C9.11542 19.5443 9.07696 19.3977 9.07696 19.2022C9.07696 19.1534 9.0385 19.1045 9.0385 19.1045C9.00004 19.1045 8.96158 19.0557 8.96158 19.0557C8.88465 19.1045 8.84619 19.1534 8.84619 19.2511Z" fill="#FFB164"/>
<path d="M8.1924 18.8599C8.15394 18.9576 8.15394 19.0554 8.11548 19.2019V19.2508V19.2997C8.11548 19.3485 8.15394 19.3485 8.1924 19.3974C8.23086 19.3974 8.26932 19.3974 8.30779 19.3974C8.34625 19.3974 8.34625 19.3485 8.38471 19.2997C8.42317 19.2019 8.42317 19.1042 8.46163 18.9576V18.9088V18.8599C8.46163 18.8111 8.42317 18.8111 8.38471 18.7622C8.34625 18.7622 8.30779 18.7622 8.26932 18.7622C8.23086 18.7622 8.23086 18.8111 8.1924 18.8599Z" fill="#FFB164"/>
<path d="M7.46146 17.9805L7.423 18.0294C7.423 18.0294 7.423 18.0294 7.46146 17.9805C7.423 18.0294 7.423 18.0294 7.38454 18.0782C7.38454 18.0782 7.38454 18.0782 7.423 18.0782C7.423 18.0782 7.423 18.0782 7.38454 18.0782C7.38454 18.0782 7.34608 18.0782 7.34608 18.1271L7.30762 18.1759V18.2248V18.2737C7.30762 18.3225 7.34608 18.3225 7.38454 18.3714C7.423 18.3714 7.46146 18.3714 7.49992 18.3714C7.53839 18.3714 7.57685 18.3225 7.57685 18.2737C7.61531 18.2248 7.61531 18.2248 7.65377 18.1759C7.65377 18.1271 7.69223 18.0782 7.69223 18.0782C7.69223 18.0782 7.69223 18.0294 7.65377 18.0294L7.61531 17.9805C7.57685 17.9805 7.53839 17.9316 7.53839 17.9316H7.49992C7.49992 17.9316 7.46146 17.9805 7.46146 17.9805Z" fill="#FFB164"/>
<path d="M6.69231 16.5145C6.65385 16.5634 6.65385 16.5634 6.61539 16.5634C6.65385 16.5634 6.65385 16.5634 6.69231 16.5145C6.61538 16.5634 6.57692 16.6122 6.57692 16.6122C6.57692 16.6122 6.53846 16.6122 6.53846 16.6611L6.5 16.71C6.5 16.7588 6.5 16.8077 6.5 16.8565C6.5 16.9054 6.53846 16.9054 6.57692 16.9543H6.61539C6.65385 16.9543 6.65385 16.9543 6.69231 16.9543C6.73077 16.9543 6.76923 16.9054 6.76923 16.9054C6.80769 16.8565 6.84615 16.8565 6.88462 16.8077C6.92308 16.7588 6.92308 16.7588 6.92308 16.71V16.6611C6.92308 16.6611 6.92308 16.6122 6.88462 16.6122C6.84615 16.5634 6.84615 16.5634 6.80769 16.5634C6.76923 16.4657 6.73077 16.4657 6.69231 16.5145Z" fill="#FFB164"/>
<path d="M6.30767 15.3418H6.26921C6.26921 15.3418 6.30767 15.3418 6.30767 15.3418C6.26921 15.3418 6.26921 15.3418 6.23075 15.3418C6.26921 15.3418 6.26921 15.3418 6.30767 15.3418C6.26921 15.3418 6.23075 15.3418 6.23075 15.3418H6.26921H6.23075H6.19229H6.15383C6.11537 15.3418 6.11537 15.3907 6.0769 15.4395C6.0769 15.4884 6.0769 15.5373 6.0769 15.5861C6.0769 15.5861 6.0769 15.5861 6.0769 15.635L6.11537 15.6838C6.15383 15.6838 6.15383 15.6838 6.19229 15.7327H6.23075C6.26921 15.7327 6.26921 15.7327 6.30767 15.7327C6.34614 15.7327 6.34614 15.7327 6.3846 15.6838C6.42306 15.6838 6.42306 15.635 6.46152 15.5861C6.46152 15.5373 6.46152 15.4884 6.46152 15.4395C6.46152 15.3907 6.42306 15.3907 6.3846 15.3418C6.3846 15.293 6.34614 15.293 6.30767 15.3418Z" fill="#FFB164"/>
<path d="M6.23083 13.8761C6.19237 13.8761 6.1539 13.8272 6.11544 13.8272H6.1539C6.07698 13.7784 6.03852 13.7295 6.00006 13.6807C5.9616 13.6807 5.92313 13.6807 5.88467 13.6807C5.84621 13.6807 5.80775 13.7295 5.80775 13.7295C5.80775 13.7784 5.76929 13.8272 5.76929 13.8272V13.8761C5.76929 13.925 5.80775 13.925 5.80775 13.925C5.88467 14.0227 6.00006 14.1204 6.11544 14.1693C6.1539 14.1693 6.19237 14.1693 6.23083 14.1693C6.26929 14.1693 6.26929 14.1204 6.30775 14.0715C6.30775 14.0227 6.30775 13.9738 6.30775 13.925C6.30775 13.925 6.26929 13.925 6.23083 13.8761Z" fill="#FFB164"/>
<path d="M5.73084 12.6057C5.76931 12.6057 5.80777 12.6546 5.84623 12.6546H5.88469H5.92315C5.92315 12.6546 5.96161 12.6546 5.96161 12.6057L6.00007 12.5568V12.508C6.00007 12.4591 6.00007 12.4591 6.00007 12.4103C6.00007 12.4103 6.00007 12.4103 6.00007 12.3614L5.96161 12.3125C5.92315 12.3125 5.88469 12.2637 5.84623 12.2637H5.80777H5.76931C5.76931 12.2637 5.73084 12.2637 5.73084 12.3125L5.69238 12.3614V12.4103C5.69238 12.4591 5.69238 12.4591 5.69238 12.508C5.69238 12.508 5.69238 12.508 5.69238 12.5568C5.69238 12.6057 5.69238 12.6057 5.73084 12.6057Z" fill="#FFB164"/>
<path opacity="0.24" d="M3.92298 13.8767C3.88452 14.2676 3.84606 14.7073 3.96144 15.0493C3.99991 15.1959 4.11529 15.3425 4.19221 15.2936C4.26914 15.2448 4.3076 15.0982 4.3076 15.0005C4.34606 14.7562 4.34606 14.463 4.46144 14.2676C4.61529 13.8767 5.07683 13.0949 4.69221 12.6552C4.26914 12.2155 3.96144 13.5835 3.92298 13.8767Z" fill="white"/>
<path d="M8.15381 15.5861C8.65381 15.1953 9.42304 15.3418 9.7692 15.9282C10.1923 15.1464 11.1538 14.9998 11.7692 15.4884C12.423 15.977 12.7692 16.9542 12.7692 17.8826C13.8077 17.4428 14.923 18.42 15.5384 19.5927C15.6538 19.7881 15.7307 19.9835 15.8846 20.1301C16.0769 20.2767 16.3077 20.3256 16.5384 20.3256C18.3846 20.6187 20 22.5731 20.3461 24.9184C20.4615 25.6513 20.423 26.4331 20.1154 27.0194C19.8461 27.508 19.423 27.8011 19.0384 28.0454C18.5769 28.3386 18.1154 28.6806 17.5769 28.7295C16.0769 28.8761 15.0769 26.7751 13.7307 25.9933C12.6154 25.3581 11.3077 25.6024 10.1923 24.9673C9.30766 24.4787 8.4615 23.5015 7.69227 22.7686C7.03843 22.1334 6.61535 21.4982 6.38458 20.521C6.07689 19.2995 6.23074 16.9542 7.73074 17.5405C7.49997 16.8565 7.65381 15.977 8.15381 15.5861Z" fill="#89E269"/>
<path d="M43.9615 14.3652H43.0384C42.8845 18.7138 35.6922 21.1079 22.5384 21.1079C9.80762 21.1079 2.26916 17.9809 2.03839 14.3652H1.11531C1.11531 14.3652 0.769158 19.9353 3.2307 26.6779C6.923 36.7919 12.0384 38.6486 12.0384 38.6486L22.4615 38.8929L32.8845 38.6486C32.8845 38.6486 37.9615 36.8408 41.6538 26.7268C44.0768 19.9353 43.9615 14.3652 43.9615 14.3652Z" fill="#EDCEB9"/>
<path d="M33.0385 40.8473V38.5021L22.5385 36.8408L12.0385 38.6486V40.8473C12.0385 40.8473 11.9616 41.9222 15.1539 43.2903C19.5 45.1959 26.6154 44.5607 30 43.2903C33.1923 42.0688 33.0385 40.8473 33.0385 40.8473Z" fill="#EDCEB9"/>
<path d="M29.9616 43.2902C33.1923 42.0688 33.077 40.8473 33.077 40.8473V38.502L28.2693 37.7202C28.2693 37.7202 28.2693 37.7202 28.2308 37.7202C27.6923 38.16 27.1539 38.502 27.1154 39.3815C27.077 40.3098 27.4616 41.4336 27.1539 42.3131C26.9616 42.8505 26.4616 43.046 26 43.1925C22.4616 44.2186 18.8462 43.5834 15.3846 42.5085C14.3077 42.1665 13.1923 41.7756 12.3077 40.9938C12.2308 40.945 12.1539 40.8473 12.0385 40.7984C12.0385 40.7984 11.9616 41.8733 15.1539 43.2414C19.4616 45.1958 26.577 44.5606 29.9616 43.2902Z" fill="#EABFAC"/>
<path opacity="0.38" d="M6.26921 22.9643C6.03844 23.6972 6.23075 24.5278 6.46152 25.3096C7.0769 27.3617 7.92306 29.2672 8.8846 31.1239C9.57691 32.4431 10.4231 33.8112 11.6538 34.1043C12.0769 34.2021 12.5384 34.1532 12.9231 33.9089C13.3077 33.6646 13.5769 33.1271 13.6154 32.5897C13.6154 32.0034 13.3846 31.5148 13.1538 31.0262C12.5769 29.8535 12.1154 28.5832 11.8461 27.264C11.6923 26.3845 11.6154 25.4073 11.2692 24.6255C10.6154 23.1597 6.96152 20.5701 6.26921 22.9643Z" fill="white"/>
<path opacity="0.38" d="M13.6538 39.5279C13.5384 39.5279 13.4614 39.5279 13.3461 39.6256C13.1538 39.7722 13.1538 40.1142 13.2307 40.3585C13.3461 40.6028 13.5384 40.7494 13.6922 40.8471C14.4614 41.3357 15.3076 41.6288 16.1922 41.8243C16.5384 41.922 16.8845 41.9709 17.1922 41.7754C17.4999 41.6289 17.7307 41.1403 17.5768 40.7494C17.423 40.4074 17.0384 40.3096 16.7307 40.3096C15.7307 40.1631 14.6538 39.479 13.6538 39.5279Z" fill="white"/>
<path d="M43.923 14.3652H42.9999C42.923 16.8082 40.6153 18.616 36.3076 19.7887C36.0768 21.7919 35.5768 24.1372 34.5768 26.6291C31.5384 33.9092 28.6922 35.9613 25.2307 37.4271C20.923 39.2838 15.8845 38.8441 15.8845 38.8441C15.8845 38.8441 20.9614 40.3099 24.9999 40.3099C29.0384 40.3099 32.8076 38.6486 32.8076 38.6486C32.8076 38.6486 37.8845 36.8408 41.5768 26.7268C44.0384 19.9353 43.923 14.3652 43.923 14.3652Z" fill="#EABFAC"/>
<path d="M43.9621 13.9741H43.039C43.039 14.1207 43.039 14.2184 43.039 14.365C42.9237 18.7624 35.7313 21.1565 22.539 21.1565C9.76981 21.1565 2.23135 17.9806 2.03904 14.365C2.03904 14.2184 2.07751 14.1207 2.07751 13.9741H1.15443C1.15443 14.1207 1.11597 14.2673 1.11597 14.4139C1.30827 18.4204 9.19289 21.9872 22.539 21.9872C36.3467 21.9872 43.8467 19.2999 43.9621 14.365C43.9621 14.2184 43.9621 14.0718 43.9621 13.9741Z" fill="#FFDFCA"/>
<path d="M4.96135 9.47907L4.76904 11.3846C4.76904 11.3846 5.34597 14.2185 8.53827 15.2445C12.1152 16.3683 14.846 15.3423 15.0383 12.5572C15.0767 12.1175 14.6921 10.8471 14.6921 10.8471L4.92289 9.38135L4.96135 9.47907Z" fill="#59B24F"/>
<path d="M14.7366 11.6659C15.0045 9.91771 13.0412 7.96123 10.3514 7.29601C7.66167 6.63079 5.264 7.50873 4.99609 9.25694C4.72817 11.0052 6.69147 12.9616 9.38123 13.6269C12.071 14.2921 14.4687 13.4141 14.7366 11.6659Z" fill="#84D17D"/>
<path d="M14.4229 11.3844C14.346 12.7525 12.3075 13.6809 9.80754 13.1923C7.30754 12.7037 5.23062 10.847 5.26908 9.4789C5.346 8.11082 7.57677 7.08477 10.0768 7.57337C12.5383 8.06196 14.4614 10.0164 14.4229 11.3844Z" fill="#B0EDA9"/>
<path d="M7.07694 9.47916C7.00002 9.38144 6.9231 9.28372 6.9231 9.13714C6.9231 8.89284 7.15386 8.84398 7.30771 8.84398C7.65386 8.89284 8.03848 8.99056 8.34617 9.186C8.23079 8.99056 8.15386 8.79512 8.1154 8.59968C8.1154 8.55082 8.07694 8.50196 8.1154 8.4531C8.15386 8.35538 8.26925 8.40424 8.34617 8.4531C8.73079 8.6974 9.07694 9.03942 9.38463 9.4303C9.26925 9.23486 9.23079 8.99056 9.23079 8.79512C9.23079 8.55082 9.30771 8.35538 9.46156 8.25766C9.65386 8.15994 9.9231 8.30652 10.0769 8.55082C10.2308 8.79512 10.2692 9.08828 10.3077 9.38144C10.6154 9.08828 11.0385 8.99056 11.4231 9.13714C11.5 9.186 11.6154 9.23486 11.6539 9.33258C11.7308 9.52802 11.5769 9.6746 11.4616 9.77232C11.9231 9.6746 12.4616 9.9189 12.8077 10.4075C12.8462 10.4564 12.8846 10.5541 12.8846 10.6029C12.8846 10.6518 12.8462 10.7007 12.8462 10.7007C12.6539 10.945 12.4231 11.0427 12.1539 11.0915C11.8846 11.1404 11.6154 11.0427 11.3462 10.9938C11.6154 11.1404 11.8462 11.3358 12.0769 11.5801C12.1154 11.629 12.1154 11.629 12.1539 11.6779C12.1539 11.7267 12.1539 11.7267 12.1154 11.7756C11.9231 12.1176 11.5385 12.1665 11.2308 11.971C10.9231 11.8244 10.6539 11.4824 10.4231 11.1893C10.5385 11.4336 10.6154 11.6779 10.5769 11.971C10.5385 12.2153 10.3077 12.4108 10.1154 12.313C10.0385 12.2642 9.96156 12.1665 9.88463 12.0687C9.69233 11.7756 9.57694 11.4336 9.50002 11.0915C9.46156 11.5313 9.15386 11.8733 8.80771 11.8244C8.73079 11.8244 8.6154 11.7756 8.57694 11.6779C8.50002 11.5801 8.50002 11.3847 8.57694 11.287C8.6154 11.1893 8.69233 11.0915 8.80771 10.9938C8.53848 11.1404 8.23079 11.287 8.00002 11.0427C7.9231 10.945 7.88463 10.8472 7.9231 10.7495C7.96156 10.7007 8.00002 10.6518 8.03848 10.6029C8.15386 10.5052 8.50002 10.4564 8.53848 10.3098C7.9231 10.1632 7.50002 9.9189 7.07694 9.47916Z" fill="#C1FFB8"/>
<path d="M21.8463 16.1241C22.4617 15.782 23.2309 15.782 23.8078 16.1729C23.9232 16.2706 24.1155 16.3684 24.1924 16.2218C24.2309 16.1729 24.2309 16.0752 24.2309 15.9775C24.1155 15.0491 23.4617 14.3162 22.6924 14.2674C22.154 14.2185 21.6155 14.5605 21.1155 14.9026C20.7693 15.1469 20.4232 15.44 20.1155 15.7332C19.6924 16.1241 19.2693 16.5638 19.077 17.199C18.9232 17.6387 18.8463 18.6159 19.3463 18.7625C19.8463 18.9091 20.077 17.9807 20.3463 17.5899C20.7693 16.9547 21.2693 16.4172 21.8463 16.1241Z" fill="#0A0B0C"/>
<path d="M23.2694 14.1697C22.4617 14.0231 21.654 14.3163 20.9232 14.8049C20.2309 15.2935 19.6155 15.9775 19.0001 16.6616C18.3463 17.3945 18.3847 18.8114 18.7694 19.6909C19.1155 20.5215 19.8463 21.0589 20.577 21.1567C21.3078 21.2544 22.0001 20.8635 22.654 20.4726C23.3463 20.0329 24.0386 19.5443 24.5001 18.7625C25.0001 17.9808 25.2309 16.9547 25.0001 16.0264C24.8078 15.0003 24.0771 14.3163 23.2694 14.1697ZM23.5386 16.857C23.3463 17.3456 22.9617 17.7365 22.5771 18.0296C22.1924 18.3228 21.8078 18.5182 21.4232 18.7137C21.0771 18.8603 20.7309 19.0068 20.3847 18.958C20.0386 18.9091 19.654 18.7137 19.5001 18.3228C18.7694 16.8081 20.654 15.6355 21.4617 15.1958C21.9232 14.9515 22.4232 14.8537 22.8847 15.0003C23.0771 15.0492 23.2309 15.1469 23.3847 15.2935C23.7309 15.6844 23.7694 16.3684 23.5386 16.857Z" fill="#36383F"/>
<path d="M12.3463 6.25491C12.9616 5.91289 13.7309 5.91289 14.3078 6.30377C14.4232 6.40149 14.6155 6.49921 14.6924 6.35263C14.7309 6.30377 14.7309 6.20605 14.7309 6.10833C14.6155 5.17999 13.9616 4.4471 13.1924 4.39824C12.654 4.34938 12.1155 4.6914 11.6155 5.03341C11.2693 5.27771 10.9232 5.57087 10.6155 5.86403C10.1924 6.25491 9.76934 6.69465 9.57703 7.32983C9.42319 7.76957 9.34627 8.74677 9.84627 8.89335C10.3463 9.03993 10.577 8.11159 10.8463 7.72071C11.2693 7.08553 11.7693 6.54807 12.3463 6.25491Z" fill="#0A0B0C"/>
<path d="M13.7694 4.25124C12.9617 4.10466 12.154 4.39782 11.4232 4.88642C10.7309 5.37502 10.1155 6.05906 9.50012 6.7431C8.84628 7.476 8.88474 8.89294 9.26936 9.77242C9.61551 10.603 10.3463 11.1405 11.077 11.2382C11.8078 11.3359 12.5001 10.9451 13.154 10.5542C13.8463 10.1144 14.5386 9.62584 15.0001 8.84408C15.5001 8.06232 15.7309 7.03626 15.5001 6.10792C15.3078 5.08186 14.577 4.39782 13.7694 4.25124ZM14.0386 6.9874C13.8463 7.476 13.4617 7.81802 13.077 8.11118C12.6924 8.40434 12.3078 8.59978 11.9232 8.79522C11.577 8.9418 11.2309 9.08838 10.8847 9.03952C10.5386 8.99066 10.154 8.79522 10.0001 8.40434C9.26936 6.88968 11.154 5.71704 11.9617 5.2773C12.4232 5.033 12.9232 4.93528 13.3847 5.08186C13.577 5.13072 13.7309 5.22844 13.8847 5.37502C14.2309 5.7659 14.2694 6.44994 14.0386 6.9874Z" fill="#36383F"/>
<path d="M39.6925 9.283C40.1925 9.86932 40.5386 10.6999 40.5386 11.5306C40.5386 11.726 40.5386 11.9703 40.6925 12.0192C40.7694 12.0192 40.8463 11.9703 40.8848 11.9214C41.5002 11.384 41.731 10.2602 41.4233 9.42958C41.1925 8.7944 40.731 8.3058 40.2694 7.91492C39.9233 7.62176 39.5771 7.37746 39.231 7.13316C38.7694 6.84 38.2694 6.54684 37.731 6.5957C37.3463 6.64456 36.6156 6.98658 36.731 7.62176C36.8463 8.25694 37.6156 8.11036 38.0002 8.25694C38.654 8.40352 39.231 8.74554 39.6925 9.283Z" fill="#0A0B0C"/>
<path d="M41.7308 10.0162C41.5 9.03897 40.9231 8.20835 40.2693 7.62203C39.6154 7.03571 38.8462 6.64483 38.1154 6.25395C37.3462 5.86307 36.3077 6.49825 35.8846 7.32887C35.4616 8.11063 35.3846 9.13669 35.6539 10.0162C35.9231 10.8956 36.5 11.5308 37.077 12.1171C37.6923 12.7035 38.3462 13.2409 39.1154 13.4852C39.8462 13.6807 40.7308 13.5341 41.2693 12.8989C41.8077 12.166 41.9616 11.0422 41.7308 10.0162ZM39.9231 11.5308C39.4616 11.5308 39.0385 11.2377 38.6923 10.9445C38.3462 10.6513 38 10.3093 37.6923 9.91845C37.4231 9.62529 37.1923 9.28327 37.077 8.84353C36.9616 8.40379 36.9231 7.91519 37.1154 7.52431C37.8846 6.05851 39.5385 7.62203 40.1923 8.40379C40.577 8.84353 40.8462 9.33213 40.9616 9.96731C41 10.2116 41 10.4559 40.9616 10.6513C40.8462 11.2377 40.3847 11.5797 39.9231 11.5308Z" fill="#36383F"/>
<path d="M24.8845 12.8014C24.8845 12.8014 26.4999 17.8829 31.1538 16.4171C35.8076 14.9513 37.6922 11.2868 38.1153 10.6516C38.9999 9.28353 38.9615 7.28027 38.9615 7.28027L24.8845 12.8014Z" fill="#FFECD7"/>
<path d="M26.9999 11.971C26.9614 11.971 28.1922 15.4401 30.3845 14.9026C34.7307 13.8277 34.0384 9.23486 34.0384 9.23486L26.9999 11.971Z" fill="#FFDC31"/>
<path opacity="0.52" d="M36.7308 9.86993C36.4616 11.0426 35.5385 11.7266 34.8846 12.5572C34.7693 12.7038 34.6154 12.9481 34.6923 13.1435C34.7308 13.2901 34.8846 13.3878 35.0385 13.339C35.1539 13.339 35.2693 13.2413 35.3846 13.1435C35.9231 12.6549 36.3846 12.0686 36.8077 11.4334C37.2693 10.7494 37.7693 10.0165 37.8462 9.08817C37.8462 8.99045 37.8462 8.89273 37.8462 8.79501C37.7308 8.40413 37.3077 8.59957 37.1154 8.79501C36.8846 9.08817 36.8077 9.47905 36.7308 9.86993Z" fill="white"/>
</g>
<defs>
<clipPath id="clip0_678_3738">
<rect width="46" height="45" fill="white"/>
</clipPath>
</defs>
</svg>
